<?xml version="1.0" encoding="utf-8"?>
<!-- Generator: Adobe Illustrator 27.9.0, SVG Export Plug-In . SVG Version: 6.00 Build 0)  -->
<svg version="1.1" id="Layer_1" xmlns="http://www.w3.org/2000/svg" xmlns:xlink="http://www.w3.org/1999/xlink" x="0px" y="0px"
	 viewBox="0 0 1500 200" style="enable-background:new 0 0 1500 200;" xml:space="preserve">
<style type="text/css">
	.st0{fill:#848482;}
	.st1{fill:#CC0033;}
	.st2{fill:#CC0033;stroke:#FFFFFF;stroke-width:6;stroke-miterlimit:10;}
	.st3{fill:#FFFFFF;}
	.st4{fill:none;stroke:#FFFFFF;stroke-width:1.77;stroke-miterlimit:10;}
	.st5{enable-background:new    ;}
</style>
<g id="Layer_2_00000153693055848639387240000000589704853109361339_">
	<g>
		<rect x="-8.1" y="46.4" class="st0" width="1584" height="117.7"/>
		<rect x="-8.1" y="40.8" class="st1" width="1584" height="117.7"/>
	</g>
</g>
<g id="Layer_1_00000124160231813867865710000018207183748672331707_">
	<g>
		<g>
			<circle class="st0" cx="436" cy="100.5" r="96.2"/>
			<circle class="st2" cx="436" cy="100.5" r="67.7"/>
			<g>
				<path class="st3" d="M367.5,134.1l3.8,6.8l-1.8,1l-2.5-4.5l-2.8,1.6l2.3,4.1l-1.8,1l-2.3-4.1l-3.2,1.8l2.5,4.5l-1.8,1l-3.8-6.8
					L367.5,134.1L367.5,134.1z"/>
				<path class="st3" d="M375.6,150.8c-0.2-0.9-0.6-1.7-1.2-2.5c-0.5-0.7-1.6-1.4-2.7-0.5c-1.8,1.4,2.5,5.4-1,8.1
					c-2.3,1.8-4.5,0.6-6.2-1.5c-0.9-1.1-1.1-1.8-1.6-3l2-1.2c0.2,1,0.5,2,1.2,2.9c0.6,0.8,1.8,1.6,2.8,0.8c2-1.5-2.3-5.5,1.1-8.1
					c2.3-1.8,4.6-0.6,6,1.2c0.7,0.9,1.2,1.8,1.5,2.8L375.6,150.8L375.6,150.8z"/>
				<path class="st3" d="M380.4,155.6l-2.7-2.6l1.5-1.5l7.3,7.1l-1.5,1.5l-2.7-2.6l-7.7,7.9l-1.9-1.8L380.4,155.6L380.4,155.6z"/>
				<path class="st3" d="M390.2,161.4l2.4,1.8l-3.5,13.7l-2.4-1.7l0.9-3.1l-4.3-3.1l-2.7,1.8l-2.2-1.6L390.2,161.4z M389.8,164.4
					L389.8,164.4l-4.8,3.3l3.1,2.2L389.8,164.4z"/>
				<path class="st3" d="M398.8,167.1l4.1,2c1.5,0.7,3.6,2.3,2.3,4.9c-0.7,1.4-2.1,1.9-3.6,1.5l0,0c1.5,0.9,2.1,2.6,1.4,4
					c-1.5,3-4.4,2.1-5.8,1.4l-4.1-2L398.8,167.1L398.8,167.1z M396.3,178.2l1.1,0.6c1.1,0.5,2.6,0.9,3.2-0.4c0.8-1.5-0.4-2.4-1.6-3
					l-1.1-0.6L396.3,178.2L396.3,178.2z M398.9,173.1l1,0.5c1,0.5,2.3,0.9,2.9-0.4c0.7-1.4-0.5-2.1-1.6-2.6l-0.9-0.4L398.9,173.1
					L398.9,173.1z"/>
				<path class="st3" d="M409.9,172.1l2.5,0.8l-3.4,10.6l4.9,1.5l-0.6,2l-7.4-2.3L409.9,172.1L409.9,172.1z"/>
				<path class="st3" d="M419.6,174.9l2.6,0.5l-2.6,12.9l-2.6-0.5L419.6,174.9z"/>
				<path class="st3" d="M432.6,179.1c-0.8-0.4-1.7-0.7-2.6-0.8c-0.9-0.1-2.1,0.2-2.2,1.6c-0.2,2.3,5.6,1.8,5.3,6.2
					c-0.2,2.9-2.6,3.8-5.2,3.6c-1.4-0.1-2-0.4-3.3-0.8l0.4-2.4c0.9,0.6,1.9,1,2.9,1.1c1,0.1,2.4-0.3,2.5-1.5
					c0.2-2.5-5.6-1.9-5.3-6.3c0.2-2.9,2.6-3.8,4.9-3.6c1.1,0.1,2.2,0.3,3.1,0.7L432.6,179.1L432.6,179.1z"/>
				<path class="st3" d="M436.9,176.8l2.6-0.2l0.4,5.3l5.3-0.4l-0.4-5.3l2.6-0.2l1,13.1l-2.6,0.2l-0.5-5.8l-5.3,0.4l0.5,5.8
					l-2.6,0.2L436.9,176.8z"/>
				<path class="st3" d="M451,175.3l7.5-1.9l0.5,2l-5,1.2l0.8,3.1l4.5-1.1l0.5,2l-4.5,1.1l0.9,3.6l5-1.2l0.5,2l-7.6,1.9L451,175.3
					L451,175.3z"/>
				<path class="st3" d="M461.6,172.4l3.3-1.4c3.7-1.6,7.5-1.8,9.6,3s-0.6,7.4-4.3,9.1l-3.3,1.4L461.6,172.4L461.6,172.4z
					 M468.5,181.5l1.4-0.6c2-0.9,3.3-3.2,2.2-5.9c-1.1-2.6-3.8-3.3-5.8-2.4l-1.4,0.6L468.5,181.5z"/>
				<path class="st3" d="M482.7,160.6l1.9-1.4l8.1,10.4l-2.1,1.6l-6.2-8l-0.6,2.8l-2.1-0.6L482.7,160.6L482.7,160.6z"/>
				<path class="st3" d="M496.4,163.2c0.7-0.3,1.4-0.6,2-1.3c1.6-1.6,0.6-3.7-0.8-5.1h0c0.2,1.1,0,1.9-0.8,2.8
					c-1.7,1.8-3.8,1.7-5.6,0c-2-2-2.5-4.3-0.4-6.4c2.5-2.6,5.3-1.1,7.5,1c2.6,2.5,4.6,6,1.6,9.1c-0.7,0.7-1.4,1.2-2.3,1.7
					L496.4,163.2L496.4,163.2z M495.1,154.8c-0.9-0.9-2-1.2-3-0.3c-0.9,0.9-0.3,2.1,0.5,2.9c0.9,0.9,2.1,1.3,3,0.4
					C496.6,156.9,496.1,155.7,495.1,154.8L495.1,154.8z"/>
				<path class="st3" d="M502,143.2c-0.6,0.4-1.2,0.8-1.8,1.6c-1.3,1.9,0,3.7,1.5,4.9h0c-0.4-1-0.2-1.9,0.4-2.9
					c1.4-2,3.5-2.2,5.5-0.8c2.3,1.6,3,3.9,1.3,6.3c-2.1,3-5.1,1.9-7.6,0.1c-2.9-2.1-5.4-5.3-3-8.8c0.6-0.8,1.2-1.4,2-2L502,143.2
					L502,143.2z M504.4,151.4c1,0.7,2.2,0.9,3-0.1c0.7-1,0-2.1-0.9-2.8c-1-0.7-2.3-1-3,0C502.7,149.5,503.3,150.6,504.4,151.4z"/>
				<path class="st3" d="M511.9,143.1c0.6-0.5,1.1-1,1.5-1.8c1-2-0.5-3.7-2.2-4.6l0,0c0.5,1,0.5,1.9,0,2.9c-1.1,2.2-3.2,2.7-5.3,1.6
					c-2.5-1.3-3.6-3.4-2.2-6.1c1.7-3.3,4.7-2.6,7.5-1.2c3.2,1.6,6.1,4.4,4.2,8.2c-0.4,0.9-1,1.6-1.7,2.2L511.9,143.1L511.9,143.1z
					 M508.3,135.4c-1.1-0.6-2.3-0.6-2.9,0.6c-0.6,1.1,0.3,2.1,1.3,2.6c1.1,0.6,2.4,0.6,3-0.5C510.3,137,509.4,136,508.3,135.4
					L508.3,135.4z"/>
			</g>
			<path class="st3" d="M355.8,122.2c-1.2,0-2.1-0.9-2.1-2.1s0.9-2.1,2.1-2.1s2.1,0.9,2.1,2.1S357,122.2,355.8,122.2z"/>
			<path class="st3" d="M516.3,122.2c-1.2,0-2.1-0.9-2.1-2.1s0.9-2.1,2.1-2.1s2.1,0.9,2.1,2.1S517.5,122.2,516.3,122.2z"/>
			<g>
				<path class="st3" d="M346.2,102.7l0.1-5.1c0-1.9,0.7-4.7,3.9-4.6c1.7,0.1,2.9,1.3,3.2,3h0c0.2-2,1.6-3.3,3.4-3.3
					c3.7,0.1,4.1,3.4,4.1,5.3l-0.1,5.1L346.2,102.7L346.2,102.7z M352.2,100l0-1.2c0-1.2-0.2-2.8-1.7-2.8c-1.7-0.1-1.9,1.4-1.9,2.8
					l0,1.1L352.2,100L352.2,100z M358.6,100.1l0-1.4c0-1.4-0.2-3-2-3.1c-1.9-0.1-2.2,1.5-2.3,3l0,1.4L358.6,100.1L358.6,100.1z"/>
				<path class="st3" d="M348.1,82.4l0.7-3.2l15.6-2.4l-0.7,3.2l-3.6,0.5l-1.3,5.8l3,2l-0.7,3L348.1,82.4L348.1,82.4z M351.3,81.4
					L351.3,81.4l5.4,3.4l0.9-4.2L351.3,81.4z"/>
				<path class="st3" d="M351.9,68.7l1.3-2.9c1.3-2.9,2.7-6.4,6.4-4.7c1.6,0.7,2.4,2.3,1.9,4.2l0,0c0.4-0.7,1.3-0.8,2-0.8l6.2,0.2
					l-1.3,3l-4.9-0.2c-1.2-0.1-1.7,0.1-2.2,1.2l-0.4,0.9l5.6,2.5l-1.2,2.7L351.9,68.7L351.9,68.7z M358.9,68.5l0.4-0.9
					c0.6-1.3,1.1-2.9-0.6-3.7c-1.6-0.7-2.4,0.7-3,2.1l-0.4,0.9L358.9,68.5L358.9,68.5z"/>
				<path class="st3" d="M359.1,53.9l2.1-3l12.2,1.7l0,0l-9-6.3l1.6-2.3l12,8.4l-2.1,2.9l-12.2-1.7l0,0l9,6.3l-1.6,2.3L359.1,53.9
					L359.1,53.9z"/>
				<path class="st3" d="M370.5,38.9l2.1-2l4,4.3l4.3-4l-4-4.3l2.1-2l10,10.7l-2.1,2l-4.4-4.7l-4.3,4l4.4,4.7l-2.1,2L370.5,38.9
					L370.5,38.9z"/>
				<path class="st3" d="M388.4,24.5l2.8-1.7l12.5,9.6l-2.8,1.7l-2.8-2.2l-5.1,3.1l0.6,3.5L391,40C391,40,388.4,24.5,388.4,24.5z
					 M391.3,26.1L391.3,26.1l1.3,6.3l3.7-2.2L391.3,26.1L391.3,26.1z"/>
				<path class="st3" d="M400.9,17.8l3-1.1c3-1.1,6.5-2.4,7.9,1.4c0.6,1.6,0,3.4-1.7,4.2v0c0.8-0.2,1.5,0.4,2,0.9l4.2,4.6l-3.1,1.1
					l-3.2-3.7c-0.8-0.9-1.3-1.1-2.4-0.7l-0.9,0.3l2.1,5.7l-2.8,1L400.9,17.8L400.9,17.8z M405.8,22.7l0.9-0.3c1.4-0.5,2.9-1.2,2.2-3
					c-0.6-1.7-2.2-1.2-3.6-0.7l-0.9,0.3L405.8,22.7L405.8,22.7z"/>
				<path class="st3" d="M419,14.7l-4.1,0.7l-0.4-2.3l11.2-2l0.4,2.3l-4.1,0.7l2.2,12.2l-2.9,0.5L419,14.7L419,14.7z"/>
				<path class="st3" d="M438.9,10.6l2.9,0.3l-0.8,8.4c-0.2,2.5,0.4,4.2,2.6,4.4s3.2-1.3,3.4-3.8l0.8-8.4l2.9,0.3l-0.9,9.3
					c-0.4,3.9-2.8,5.3-6.5,4.9s-5.8-2.2-5.4-6.1L438.9,10.6L438.9,10.6z"/>
				<path class="st3" d="M457.5,13.2l3.4,1.1l2,12.1h0l3.3-10.4l2.7,0.9l-4.5,14l-3.4-1.1l-2-12.1h0L455.7,28l-2.7-0.9L457.5,13.2
					L457.5,13.2z"/>
				<path class="st3" d="M474.4,19.4l2.6,1.3l-6.5,13.1l-2.6-1.3L474.4,19.4z"/>
				<path class="st3" d="M481.2,22.7l2.6,1.8l-3.4,11.6l0,0l9.6-7.4l2.4,1.6L480,39.7l-3-2L481.2,22.7L481.2,22.7z"/>
				<path class="st3" d="M496.3,33.9l6.1,6.1l-1.6,1.6l-4.1-4l-2.5,2.6l3.7,3.7l-1.6,1.6l-3.7-3.7l-2.9,2.9l4.1,4l-1.6,1.6l-6.2-6.1
					L496.3,33.9L496.3,33.9z"/>
				<path class="st3" d="M506.3,44.5l1.8,2.6c1.8,2.6,4.1,5.6,0.8,7.9c-1.4,1-3.2,0.9-4.5-0.5l0,0c0.4,0.7,0,1.5-0.3,2.1l-3.3,5.2
					l-1.9-2.7l2.7-4.1c0.6-1,0.8-1.5,0-2.5l-0.5-0.8l-5,3.5l-1.7-2.4L506.3,44.5L506.3,44.5z M502.9,50.6l0.6,0.8
					c0.8,1.2,2,2.4,3.5,1.3c1.4-1,0.6-2.4-0.2-3.6l-0.6-0.8L502.9,50.6z"/>
				<path class="st3" d="M516.2,66.4c0-1-0.3-2-0.7-3c-0.4-0.9-1.4-1.9-2.8-1.2c-2.3,1.1,1.4,6.4-3,8.6c-2.9,1.4-5.1-0.4-6.4-3.1
					c-0.7-1.4-0.8-2.2-1.1-3.6l2.5-0.9c-0.1,1.2,0.1,2.3,0.6,3.4c0.5,1,1.6,2.1,2.8,1.5c2.5-1.2-1.3-6.5,3.1-8.6
					c3-1.4,5.1,0.4,6.2,2.7c0.5,1.1,0.9,2.3,1,3.4L516.2,66.4L516.2,66.4z"/>
				<path class="st3" d="M520.8,71.2l0.9,2.8l-13.9,4.6l-0.9-2.8L520.8,71.2L520.8,71.2z"/>
				<path class="st3" d="M521.6,82.7l-0.8-4.1l2.3-0.4l2.1,11.2l-2.3,0.4l-0.8-4.1L510,87.9l-0.5-2.9L521.6,82.7L521.6,82.7z"/>
				<path class="st3" d="M516.8,98.3l8.8-5.5l0.1,3.4l-6.1,3.6l6.2,3.4l0,3.1l-9-5.1l-5.8,0.1l0-2.9L516.8,98.3L516.8,98.3z"/>
			</g>
			<path class="st3" d="M436,156.8c13-7.6,25-13.6,34.4-25.3c4.9-6.2,8.3-13,8.3-21.1v-7.2H436"/>
			<path class="st3" d="M436,55.8c0,0-33.8,6-39.8,6c-2.1,1.7-3,5.9-2.9,8.6c0.1,13.9,0.3,18.8,0,32.7H436"/>
			<path class="st0" d="M436,103.2h-42.7v4.1c-0.2,9.9,3.2,18.1,9.4,25.5c9.2,11,20.8,16.6,33.3,24.1"/>
			<path class="st0" d="M436,103.2h42.7c0-15.1,0-18.2,0-33.3c0-2.3-0.8-6.3-2.5-7.7c-6.5,0-40.2-6.4-40.2-6.4"/>
			<line class="st4" x1="393.4" y1="103.2" x2="478.7" y2="103.2"/>
			<line class="st4" x1="436" y1="55.8" x2="436" y2="156.8"/>
			<g>
				<path class="st3" d="M426.3,127c0.4-0.2,0.7-0.7,0.8-1.1c0-0.7,0-1.8-0.1-3.2c-0.1-1-0.3-2.1-1-3.7c-0.9-1.9-1.9-2.9-1.9-3.1
					c0-0.1,0.9,0.3,1.5,1s1,1.5,1,1.5c0.1-0.3-0.4-1.6-0.6-2c-0.8-1.6-2.4-3.1-4.8-4.2c-4.3-1.9-9.2-1.1-11.4,0.6
					c-0.2,0.2,0,0.5-0.3,0.7c-2.6,2.2-3.8,5.9-4.2,7.1c-0.4,1.2,3.4,6,10.9,7.2c1.1,0.2,2.4,0.1,3.5,0c0.1,0,0.2-2.9-0.6-5.9
					c-1.8-7.1-8.3-8.1-7.6-8.3c0.1,0,6.7,0,9.2,7.6c1,3.1,0.9,7,1,7c1.1,0,2.3-0.4,3.3-0.7C425.5,127.4,426,127.2,426.3,127z"/>
				<path class="st3" d="M401.1,121.6c0.1-0.4,0.2-0.8,0.5-1.2c0.8-1,1.8-1.1,3-1.1c0,0.1-0.5,1.3-0.5,1.4c-0.2,0.6-0.1,1.3,0.4,2.1
					c1.5,2.5,5.7,5.5,11.5,6.4c0.5,0.1,1.1,0.1,1.8,0.1c0.8,0,1.7-0.1,2.3-0.1l0,0c0.2,0.2,0.9,0.4,1.4,0.4c0.1,0,0.3,0,0.3,0
					c0.9-0.1,2.1-0.3,3.7-0.7c2.8-0.8,3.1-1.9,3.1-2.3c0-0.2,0-0.3,0-1.3c0.9,0.1,3.6,1.3,3.3,3.7c-0.4,2.4-5.1,3.8-6.9,4.1
					c-4.4,0.8-11,0-15.2-1.7c-1.9-0.7-3.7-1.8-5.3-3.1s-3-3-3.3-5.1C401,122.7,401,122.1,401.1,121.6L401.1,121.6z"/>
			</g>
			<path class="st3" d="M457,66.2l0-7.2l-1.8-0.4l0,7.6l-6.7,4.4l0.5-0.1c4.7-0.9,9.6-0.9,14.3,0l0.5,0.1
				C463.8,70.6,457,66.2,457,66.2z"/>
			<path class="st3" d="M458.7,80l3.5-2.1c1-0.6,1.6-1.7,1.6-2.9v-2.6l-0.5-0.1c-4.7-0.9-9.6-0.9-14.3,0l-0.5,0.1l0,2.8
				c0,1.1,0.5,2.1,1.4,2.7c1.4,1,3.3,2.3,3.4,2.4l0.6,3.1c0.3,0.8,1,1.2,2.1,1.2c2.3,0,4.1,2.1,3.6,4.4c-0.3,1.5-1.5,2.7-2.9,2.9
				c-2.4,0.4-4.4-1.4-4.4-3.6c0-0.2,0-0.5,0-0.7c0.1-1-0.4-1.8-1-2.1c-0.4-0.2-0.8-0.4-1.2-0.4c-0.2,0-1.2,0.1-1.2,0.7
				c0,0.2,0.6,0.2,0.7,0.9c0,0.3-0.2,1.3-0.2,2c-0.1,0.9,0,1.9,0.3,2.7c0.8,2.2,3.5,4.2,6.4,4.2c4.1,0,7.4-3.3,7.4-7.4
				c0-3.3-2.3-6.2-5.4-7.1l0.2-0.9C458.5,80.2,458.6,80.1,458.7,80L458.7,80z M456.1,75.4c-0.6,0-1-0.5-1-1.1s0.5-1.1,1-1.1
				s1,0.5,1,1.1S456.7,75.4,456.1,75.4z"/>
			<path class="st3" d="M436,158.5l-0.8-0.4c-1.9-1.1-3.8-2.2-5.6-3.3c-10.3-5.9-20-11.6-28-21.1c-6.8-8.1-10-16.8-9.8-26.4
				c0.3-11.7,0.2-20.1,0.1-30.7c0-1.9,0-4-0.1-6.1c0-2.8,0.9-7.7,3.5-9.8l0.4-0.3h0.5c5.7,0,39.1-5.9,39.5-6l0.3,0l0.3,0
				c0.3,0.1,33.7,6.3,39.9,6.3h0.5l0.4,0.3c2.2,1.9,3,6.4,3,8.9c-0.1,9.8,0,17.7,0,26c0,4.5,0,9.2,0,14.5c0,7.6-2.8,14.8-8.6,22
				c-8.3,10.4-18.8,16.4-29.8,22.8c-1.6,0.9-3.3,1.9-5,2.9L436,158.5L436,158.5z M396.9,63.3c-1.3,1.4-2.1,4.7-2.1,7.1
				c0,2.1,0,4.2,0.1,6.1c0.1,10.6,0.2,19-0.1,30.8c-0.2,8.9,2.8,17,9.1,24.5c7.6,9.1,17.1,14.6,27.2,20.4c1.6,0.9,3.3,1.9,4.9,2.9
				c1.4-0.8,2.8-1.6,4.2-2.4c10.8-6.2,21-12.1,29-22.1c5.4-6.8,8-13.2,8-20.2c0-5.3,0-10,0-14.5c0-8.3,0-16.2,0-26
				c0-2.1-0.7-5-1.7-6.2c-7.5-0.3-36.3-5.7-39.6-6.3C432.7,57.9,403.9,63,396.9,63.3L396.9,63.3z"/>
			<path class="st1" d="M404.6,71H419c4,0,7.9,1.3,7.9,5.6c0,3.2-1.7,4.8-4.7,5.6v0.1c3.2,0.4,5.1,2.9,5.1,5.2
				c0,5.8-4.7,6.4-9.4,6.4h-13.3L404.6,71L404.6,71z M412.9,79.8h2.2c1.5,0,3.2-0.5,3.2-2.2s-1.4-2.2-3-2.2h-2.4V79.8z M412.9,89.2
				h2.3c1.6,0,3.3-0.6,3.3-2.4c0-2-1.6-2.3-3.3-2.3h-2.4V89.2z"/>
			<path class="st1" d="M451.8,124c0,2.2,0.6,3.8,2.7,3.8c2.3,0,2.8-1.6,2.8-3.8l0-13.6l8.6,0l0,13.4c0,7.4-4.5,9.9-11.5,9.9
				c-6.4,0-11.4-2.6-11.4-9.3l0-13.9l8.8,0L451.8,124L451.8,124z"/>
		</g>
		<g class="st5">
			<path class="st3" d="M592.1,112.9V79.5h11.7c4.1,0,7.1,0.8,9.2,2.3c2.1,1.6,3.1,3.8,3.1,6.8c0,1.6-0.4,3.1-1.3,4.3
				c-0.8,1.2-2,2.2-3.5,2.7c1.7,0.4,3.1,1.3,4.1,2.6c1,1.3,1.5,2.9,1.5,4.8c0,3.2-1,5.6-3.1,7.3c-2.1,1.7-5,2.5-8.8,2.5H592.1z
				 M599,93.5h5.1c3.5-0.1,5.2-1.4,5.2-4.2c0-1.5-0.4-2.6-1.3-3.3c-0.9-0.7-2.3-1-4.2-1H599V93.5z M599,98.4v9h5.9
				c1.6,0,2.9-0.4,3.8-1.2c0.9-0.8,1.4-1.8,1.4-3.2c0-3.1-1.6-4.6-4.8-4.7H599z"/>
			<path class="st3" d="M636.1,112.9c-0.3-0.6-0.5-1.3-0.7-2.2c-1.6,1.8-3.7,2.7-6.3,2.7c-2.4,0-4.4-0.7-6-2.1
				c-1.6-1.4-2.4-3.2-2.4-5.3c0-2.6,1-4.7,2.9-6.1c2-1.4,4.8-2.1,8.5-2.1h3.1v-1.4c0-1.1-0.3-2.1-0.9-2.8c-0.6-0.7-1.5-1-2.8-1
				c-1.1,0-2,0.3-2.6,0.8c-0.6,0.5-1,1.3-1,2.2h-6.6c0-1.4,0.4-2.8,1.3-4c0.9-1.2,2.1-2.2,3.8-2.9c1.6-0.7,3.4-1,5.5-1
				c3.1,0,5.5,0.8,7.3,2.3c1.8,1.5,2.7,3.7,2.7,6.5v10.8c0,2.4,0.3,4.1,1,5.3v0.4H636.1z M630.6,108.3c1,0,1.9-0.2,2.7-0.7
				c0.8-0.4,1.4-1,1.8-1.8v-4.3h-2.5c-3.3,0-5.1,1.1-5.3,3.4l0,0.4c0,0.8,0.3,1.5,0.9,2C628.8,108,629.6,108.3,630.6,108.3z"/>
			<path class="st3" d="M660.8,94.3c-0.9-0.1-1.7-0.2-2.4-0.2c-2.5,0-4.2,0.8-4.9,2.5v16.2h-6.6V88.1h6.3l0.2,3
				c1.3-2.3,3.2-3.4,5.5-3.4c0.7,0,1.4,0.1,2.1,0.3L660.8,94.3z"/>
			<path class="st3" d="M670.1,88.1l0.2,2.9c1.8-2.2,4.2-3.3,7.1-3.3c2.6,0,4.6,0.8,5.9,2.3c1.3,1.5,1.9,3.9,2,6.9v16h-6.6V97
				c0-1.4-0.3-2.4-0.9-3.1c-0.6-0.6-1.6-1-3.1-1c-1.9,0-3.3,0.8-4.2,2.4v17.6h-6.6V88.1H670.1z"/>
			<path class="st3" d="M696.8,90.8c1.8-2.1,4-3.2,6.6-3.2c5.4,0,8.1,3.1,8.2,9.4v15.9H705V97.2c0-1.4-0.3-2.5-0.9-3.2
				c-0.6-0.7-1.6-1-3.1-1c-1.9,0-3.4,0.8-4.2,2.3v17.7h-6.6V77.7h6.6V90.8z"/>
			<path class="st3" d="M731,112.9c-0.3-0.6-0.5-1.3-0.7-2.2c-1.6,1.8-3.7,2.7-6.3,2.7c-2.4,0-4.4-0.7-6-2.1
				c-1.6-1.4-2.4-3.2-2.4-5.3c0-2.6,1-4.7,2.9-6.1c2-1.4,4.8-2.1,8.5-2.1h3.1v-1.4c0-1.1-0.3-2.1-0.9-2.8c-0.6-0.7-1.5-1-2.8-1
				c-1.1,0-2,0.3-2.6,0.8c-0.6,0.5-1,1.3-1,2.2h-6.6c0-1.4,0.4-2.8,1.3-4c0.9-1.2,2.1-2.2,3.8-2.9c1.6-0.7,3.4-1,5.5-1
				c3.1,0,5.5,0.8,7.3,2.3c1.8,1.5,2.7,3.7,2.7,6.5v10.8c0,2.4,0.3,4.1,1,5.3v0.4H731z M725.5,108.3c1,0,1.9-0.2,2.7-0.7
				c0.8-0.4,1.4-1,1.8-1.8v-4.3h-2.5c-3.3,0-5.1,1.1-5.3,3.4l0,0.4c0,0.8,0.3,1.5,0.9,2C723.7,108,724.5,108.3,725.5,108.3z"/>
			<path class="st3" d="M755.8,94.3c-0.9-0.1-1.7-0.2-2.4-0.2c-2.5,0-4.2,0.8-4.9,2.5v16.2h-6.6V88.1h6.3l0.2,3
				c1.3-2.3,3.2-3.4,5.5-3.4c0.7,0,1.4,0.1,2.1,0.3L755.8,94.3z"/>
			<path class="st3" d="M768.1,82v6.1h4.2V93h-4.2v12.4c0,0.9,0.2,1.6,0.5,2c0.4,0.4,1,0.6,2,0.6c0.7,0,1.4-0.1,2-0.2v5
				c-1.3,0.4-2.6,0.6-4,0.6c-4.7,0-7-2.3-7.1-7V93h-3.6v-4.9h3.6V82H768.1z"/>
			<path class="st3" d="M813.4,79.5v22c0,3.7-1.1,6.5-3.4,8.7c-2.3,2.1-5.4,3.2-9.4,3.2c-3.9,0-7-1-9.3-3.1
				c-2.3-2.1-3.5-4.9-3.5-8.5V79.5h6.9v22.1c0,2.2,0.5,3.8,1.6,4.8c1,1,2.5,1.5,4.3,1.5c3.9,0,5.8-2,5.9-6.1V79.5H813.4z"/>
			<path class="st3" d="M824.7,88.1l0.2,2.9c1.8-2.2,4.2-3.3,7.1-3.3c2.6,0,4.6,0.8,5.9,2.3c1.3,1.5,1.9,3.9,2,6.9v16h-6.6V97
				c0-1.4-0.3-2.4-0.9-3.1c-0.6-0.6-1.6-1-3.1-1c-1.9,0-3.3,0.8-4.2,2.4v17.6h-6.6V88.1H824.7z"/>
			<path class="st3" d="M844.9,81.7c0-1,0.3-1.8,1-2.5c0.7-0.6,1.6-1,2.7-1c1.1,0,2,0.3,2.7,1c0.7,0.6,1,1.5,1,2.5
				c0,1-0.3,1.8-1,2.5s-1.6,1-2.7,1c-1.1,0-2-0.3-2.7-1S844.9,82.7,844.9,81.7z M852,112.9h-6.7V88.1h6.7V112.9z"/>
			<path class="st3" d="M866.7,104.8l4.6-16.7h6.9l-8.4,24.8h-6.3l-8.4-24.8h6.9L866.7,104.8z"/>
			<path class="st3" d="M892.3,113.4c-3.6,0-6.6-1.1-8.9-3.4c-2.3-2.2-3.4-5.2-3.4-8.9v-0.6c0-2.5,0.5-4.7,1.4-6.7
				c1-2,2.3-3.5,4.1-4.5c1.8-1.1,3.8-1.6,6-1.6c3.4,0,6.1,1.1,8,3.2c2,2.1,2.9,5.2,2.9,9.1v2.7h-15.8c0.2,1.6,0.9,2.9,1.9,3.9
				c1.1,1,2.4,1.5,4.1,1.5c2.6,0,4.6-0.9,6-2.8l3.3,3.6c-1,1.4-2.3,2.5-4,3.3C896.2,113,894.4,113.4,892.3,113.4z M891.5,93
				c-1.3,0-2.4,0.4-3.2,1.3c-0.8,0.9-1.3,2.2-1.6,3.8h9.2v-0.5c0-1.5-0.4-2.6-1.2-3.4C894,93.4,893,93,891.5,93z"/>
			<path class="st3" d="M920.2,94.3c-0.9-0.1-1.7-0.2-2.4-0.2c-2.5,0-4.2,0.8-4.9,2.5v16.2h-6.6V88.1h6.3l0.2,3
				c1.3-2.3,3.2-3.4,5.5-3.4c0.7,0,1.4,0.1,2.1,0.3L920.2,94.3z"/>
			<path class="st3" d="M936.9,106.1c0-0.8-0.4-1.5-1.2-1.9c-0.8-0.5-2.1-0.9-3.9-1.3c-5.9-1.2-8.9-3.7-8.9-7.5c0-2.2,0.9-4,2.7-5.5
				s4.2-2.2,7.2-2.2c3.2,0,5.7,0.7,7.6,2.2c1.9,1.5,2.8,3.4,2.8,5.8h-6.6c0-0.9-0.3-1.7-0.9-2.4c-0.6-0.6-1.6-0.9-2.9-0.9
				c-1.1,0-2,0.3-2.6,0.8c-0.6,0.5-0.9,1.1-0.9,1.9c0,0.7,0.3,1.3,1,1.8s1.9,0.8,3.5,1.2c1.7,0.3,3,0.7,4.2,1.1
				c3.5,1.3,5.3,3.5,5.3,6.7c0,2.3-1,4.1-2.9,5.5c-1.9,1.4-4.5,2.1-7.5,2.1c-2.1,0-3.9-0.4-5.5-1.1c-1.6-0.7-2.9-1.8-3.8-3.1
				s-1.4-2.7-1.4-4.2h6.3c0.1,1.2,0.5,2.1,1.3,2.7c0.8,0.6,1.9,0.9,3.3,0.9c1.3,0,2.2-0.2,2.9-0.7
				C936.5,107.5,936.9,106.8,936.9,106.1z"/>
			<path class="st3" d="M947.5,81.7c0-1,0.3-1.8,1-2.5c0.7-0.6,1.6-1,2.7-1c1.1,0,2,0.3,2.7,1c0.7,0.6,1,1.5,1,2.5
				c0,1-0.3,1.8-1,2.5s-1.6,1-2.7,1c-1.1,0-2-0.3-2.7-1S947.5,82.7,947.5,81.7z M954.6,112.9h-6.7V88.1h6.7V112.9z"/>
			<path class="st3" d="M968,82v6.1h4.2V93H968v12.4c0,0.9,0.2,1.6,0.5,2c0.4,0.4,1,0.6,2,0.6c0.7,0,1.4-0.1,2-0.2v5
				c-1.3,0.4-2.6,0.6-4,0.6c-4.7,0-7-2.3-7.1-7V93h-3.6v-4.9h3.6V82H968z"/>
			<path class="st3" d="M985.2,103.5l4.6-15.4h7.1l-10,28.7l-0.6,1.3c-1.5,3.2-3.9,4.9-7.3,4.9c-1,0-1.9-0.1-2.9-0.4v-5l1,0
				c1.3,0,2.2-0.2,2.8-0.6c0.6-0.4,1.1-1,1.5-1.9l0.8-2l-8.7-24.9h7.1L985.2,103.5z"/>
			<path class="st3" d="M1037.9,101.8c-0.3,3.6-1.6,6.4-4,8.5c-2.4,2.1-5.5,3.1-9.5,3.1c-4.3,0-7.7-1.4-10.1-4.3
				c-2.5-2.9-3.7-6.8-3.7-11.9v-2c0-3.2,0.6-6,1.7-8.5c1.1-2.4,2.8-4.3,4.9-5.6c2.1-1.3,4.5-2,7.3-2c3.9,0,7,1,9.3,3.1
				c2.4,2.1,3.7,5,4.1,8.7h-6.9c-0.2-2.2-0.8-3.7-1.8-4.7c-1-1-2.6-1.5-4.7-1.5c-2.3,0-4,0.8-5.2,2.5c-1.1,1.6-1.7,4.2-1.8,7.7v2.5
				c0,3.6,0.5,6.2,1.6,7.9c1.1,1.7,2.8,2.5,5.2,2.5c2.1,0,3.7-0.5,4.8-1.5c1-1,1.6-2.5,1.8-4.5H1037.9z"/>
			<path class="st3" d="M1056.4,112.9c-0.3-0.6-0.5-1.3-0.7-2.2c-1.6,1.8-3.7,2.7-6.3,2.7c-2.4,0-4.4-0.7-6-2.1
				c-1.6-1.4-2.4-3.2-2.4-5.3c0-2.6,1-4.7,2.9-6.1c2-1.4,4.8-2.1,8.5-2.1h3.1v-1.4c0-1.1-0.3-2.1-0.9-2.8c-0.6-0.7-1.5-1-2.8-1
				c-1.1,0-2,0.3-2.6,0.8c-0.6,0.5-1,1.3-1,2.2h-6.6c0-1.4,0.4-2.8,1.3-4c0.9-1.2,2.1-2.2,3.8-2.9c1.6-0.7,3.4-1,5.5-1
				c3.1,0,5.5,0.8,7.3,2.3c1.8,1.5,2.7,3.7,2.7,6.5v10.8c0,2.4,0.3,4.1,1,5.3v0.4H1056.4z M1050.9,108.3c1,0,1.9-0.2,2.7-0.7
				c0.8-0.4,1.4-1,1.8-1.8v-4.3h-2.5c-3.3,0-5.1,1.1-5.3,3.4l0,0.4c0,0.8,0.3,1.5,0.9,2C1049.1,108,1049.9,108.3,1050.9,108.3z"/>
			<path class="st3" d="M1075.1,82v6.1h4.2V93h-4.2v12.4c0,0.9,0.2,1.6,0.5,2c0.4,0.4,1,0.6,2,0.6c0.7,0,1.4-0.1,2-0.2v5
				c-1.3,0.4-2.6,0.6-4,0.6c-4.7,0-7-2.3-7.1-7V93h-3.6v-4.9h3.6V82H1075.1z"/>
			<path class="st3" d="M1097.4,112.9c-0.3-0.6-0.5-1.3-0.7-2.2c-1.6,1.8-3.7,2.7-6.3,2.7c-2.4,0-4.4-0.7-6-2.1
				c-1.6-1.4-2.4-3.2-2.4-5.3c0-2.6,1-4.7,2.9-6.1c2-1.4,4.8-2.1,8.5-2.1h3.1v-1.4c0-1.1-0.3-2.1-0.9-2.8c-0.6-0.7-1.5-1-2.8-1
				c-1.1,0-2,0.3-2.6,0.8c-0.6,0.5-1,1.3-1,2.2h-6.6c0-1.4,0.4-2.8,1.3-4c0.9-1.2,2.1-2.2,3.8-2.9c1.6-0.7,3.4-1,5.5-1
				c3.1,0,5.5,0.8,7.3,2.3c1.8,1.5,2.7,3.7,2.7,6.5v10.8c0,2.4,0.3,4.1,1,5.3v0.4H1097.4z M1092,108.3c1,0,1.9-0.2,2.7-0.7
				c0.8-0.4,1.4-1,1.8-1.8v-4.3h-2.5c-3.3,0-5.1,1.1-5.3,3.4l0,0.4c0,0.8,0.3,1.5,0.9,2C1090.2,108,1091,108.3,1092,108.3z"/>
			<path class="st3" d="M1115.3,112.9h-6.7V77.7h6.7V112.9z"/>
			<path class="st3" d="M1119.7,100.3c0-2.5,0.5-4.7,1.4-6.6s2.3-3.4,4.1-4.5c1.8-1.1,3.9-1.6,6.2-1.6c3.4,0,6.1,1,8.2,3.1
				c2.1,2.1,3.3,4.8,3.5,8.4l0,1.7c0,3.8-1.1,6.9-3.2,9.2c-2.1,2.3-5,3.5-8.6,3.5s-6.4-1.1-8.6-3.4c-2.1-2.3-3.2-5.4-3.2-9.4V100.3z
				 M1126.3,100.7c0,2.4,0.4,4.2,1.3,5.4c0.9,1.2,2.2,1.9,3.8,1.9c1.6,0,2.9-0.6,3.8-1.8c0.9-1.2,1.4-3.2,1.4-5.9
				c0-2.3-0.5-4.1-1.4-5.4c-0.9-1.3-2.2-1.9-3.8-1.9c-1.6,0-2.9,0.6-3.8,1.9C1126.8,96.1,1126.3,98.1,1126.3,100.7z"/>
			<path class="st3" d="M1146.3,100.3c0-3.8,0.9-6.9,2.7-9.2c1.8-2.3,4.3-3.5,7.3-3.5c2.7,0,4.8,0.9,6.4,2.8l0.3-2.3h6v24
				c0,2.2-0.5,4.1-1.5,5.7c-1,1.6-2.4,2.8-4.2,3.7c-1.8,0.8-3.9,1.3-6.3,1.3c-1.8,0-3.6-0.4-5.3-1.1c-1.7-0.7-3-1.7-3.9-2.8l2.9-4
				c1.7,1.9,3.7,2.8,6,2.8c1.8,0,3.1-0.5,4.1-1.4c1-0.9,1.5-2.3,1.5-4v-1.3c-1.5,1.7-3.5,2.6-6,2.6c-3,0-5.4-1.2-7.2-3.5
				c-1.8-2.3-2.8-5.4-2.8-9.3V100.3z M1153,100.8c0,2.3,0.5,4,1.4,5.3c0.9,1.3,2.1,1.9,3.7,1.9c2,0,3.5-0.8,4.3-2.3V95.3
				c-0.9-1.5-2.3-2.3-4.3-2.3c-1.6,0-2.8,0.7-3.8,2C1153.4,96.2,1153,98.2,1153,100.8z"/>
		</g>
	</g>
</g>
</svg>
