<?xml version="1.0" encoding="utf-8"?>
<!-- Generator: Adobe Illustrator 27.5.0, SVG Export Plug-In . SVG Version: 6.00 Build 0)  -->
<svg version="1.1" id="BU_Logo" xmlns="http://www.w3.org/2000/svg" xmlns:xlink="http://www.w3.org/1999/xlink" x="0px" y="0px"
	 viewBox="0 0 600 600" style="enable-background:new 0 0 600 600;" xml:space="preserve">
<style type="text/css">
	.st0{fill:#FFFFFF;}
	.st1{fill:none;stroke:#FFFFFF;stroke-width:1.769;stroke-miterlimit:10;}
</style>
<g>
	<g>
		<path class="st0" d="M473.13,183.25c3.51-2.5,1.49-5.96-0.59-8.89l-1.37-1.92l-7.86,5.59l1.37,1.92
			C466.73,182.83,469.5,185.84,473.13,183.25z"/>
		<polygon class="st0" points="93.25,253.47 106.53,261.77 108.83,251.57 93.28,253.37 		"/>
		<path class="st0" d="M111.15,210.82c-3.94-1.75-5.89,1.76-7.34,5.04l-0.96,2.16l8.81,3.91l0.96-2.16
			C114.05,216.54,115.23,212.63,111.15,210.82z"/>
		<path class="st0" d="M233.89,101.88c-1.46-4.05-5.35-3.03-8.72-1.82l-2.22,0.8l3.27,9.07l2.22-0.8
			C231.77,107.94,235.41,106.08,233.89,101.88z"/>
		<polygon class="st0" points="202.86,128.39 190.81,118.4 190.72,118.46 193.89,133.78 		"/>
		<path class="st0" d="M91.28,288.76c-4.15-0.12-4.56,3.52-4.65,6.8l-0.08,2.77l8.82,0.24l0.08-2.92
			C95.53,292.62,94.97,288.86,91.28,288.76z"/>
		<g>
			<polygon class="st0" points="175.65,463.71 183.25,469.21 187.25,455.76 187.18,455.7 			"/>
			<path class="st0" d="M373.82,476.13l-3.29,1.44l8.81,20.14l3.29-1.44c4.93-2.16,8.09-7.91,5.29-14.31
				C385.11,475.55,378.75,473.97,373.82,476.13z"/>
			<path class="st0" d="M215.06,471l-2.23-1.09l-3.47,7.11l2.36,1.15c2.44,1.19,5.72,2.13,7.17-0.85
				C220.52,473.98,217.7,472.3,215.06,471z"/>
			<path class="st0" d="M437.08,431.65c-2.07,2.16-0.84,5.06,1.22,7.04c2.26,2.17,5.24,3.25,7.37,1.02c2.17-2.26,0.94-5.1-1.39-7.33
				C442.09,430.28,439.28,429.36,437.08,431.65z"/>
			<path class="st0" d="M209.98,482.66l-2.73-1.33l-4.08,8.35l2.73,1.33c2.69,1.31,6.28,2.25,7.91-1.1
				C215.65,486.14,212.87,484.07,209.98,482.66z"/>
			<path class="st0" d="M472,417.01c-2.55-1.82-5.65-2.45-7.44,0.06c-1.82,2.55-0.19,5.18,2.43,7.05c2.47,1.76,5.39,2.26,7.24-0.32
				C475.96,421.36,474.32,418.66,472,417.01z"/>
			<path class="st0" d="M476.4,385.12c-2.7-1.38-5.67-1.45-7.11,1.38c-1.36,2.66,0.65,5.09,3.19,6.39c2.79,1.42,5.95,1.6,7.36-1.15
				C481.26,388.95,479.27,386.59,476.4,385.12z"/>
			<path class="st0" d="M300,65.28C170.37,65.28,65.28,170.37,65.28,300S170.37,534.72,300,534.72S534.72,429.63,534.72,300
				S429.63,65.28,300,65.28z M518.9,289.52l-14.89,8.7l15.16,8.37l0.12,7.59l-21.84-12.47l-14.15,0.23l-0.12-7.18l14.15-0.23
				l21.43-13.42L518.9,289.52z M517.78,272.47l-5.54,1.05l-1.92-10.08l-29.63,5.63l-1.34-7.05l29.63-5.63l-1.92-10.08l5.54-1.05
				L517.78,272.47z M509.32,235.16L475.3,246.3l-2.23-6.82l34.02-11.14L509.32,235.16z M498.86,206.57
				c1.33,2.78,2.19,5.55,2.53,8.28l-5.61,1.94c-0.09-2.46-0.67-4.97-1.75-7.23c-1.06-2.22-3.4-4.63-6.92-2.95
				c-5.6,2.67,3.52,15.71-7.31,20.88c-7.08,3.38-12.44-0.94-15.55-7.46c-1.68-3.52-1.97-5.31-2.71-8.88l6.12-2.18
				c-0.14,2.8,0.29,5.72,1.5,8.26c1.17,2.45,3.99,5.14,6.91,3.75c6.16-2.94-3.15-15.88,7.54-20.99
				C490.83,196.54,496.14,200.88,498.86,206.57z M471.61,163.32l4.49,6.31c4.46,6.27,9.98,13.6,1.88,19.37
				c-3.43,2.44-7.9,2.16-11.05-1.21l-0.08,0.06c1,1.68,0.07,3.73-0.81,5.23l-8.08,12.79l-4.63-6.52l6.62-9.99
				c1.58-2.38,1.88-3.73,0.13-6.19l-1.34-1.88l-12.12,8.62l-4.16-5.85L471.61,163.32z M462.08,152.24l-3.97,4l-9.9-9.82l-6.21,6.26
				l9.07,8.99l-3.97,4l-9.07-8.99l-7.08,7.14l9.98,9.9l-3.97,4l-15.07-14.95l25.21-25.41L462.08,152.24z M416.66,114.36l-8.36,28.35
				l0.08,0.06l23.4-18.01l5.87,4.04l-30.21,22.66l-7.27-5L410.32,110L416.66,114.36z M400.25,105.16l-15.87,32.08l-6.43-3.18
				l15.87-32.08L400.25,105.16z M352.55,86.79l8.4,2.68l4.86,29.65l0.1,0.03l8.13-25.5l6.55,2.09l-10.88,34.1l-8.35-2.66
				l-4.91-29.66l-0.1-0.03l-8.13,25.5l-6.55-2.09L352.55,86.79z M304.92,103.34l2.25-22.76l7.15,0.71l-2.03,20.57
				c-0.6,6.07,0.95,10.25,6.41,10.79c5.46,0.54,7.79-3.25,8.39-9.33l2.03-20.57l7.15,0.71l-2.25,22.76
				c-0.94,9.54-6.74,12.94-15.88,12.04S303.98,112.89,304.92,103.34z M274.77,81.95l1,5.55l-10.1,1.81l5.32,29.68l-7.07,1.27
				l-5.32-29.68l-10.1,1.81l-1-5.55L274.77,81.95z M221.57,95.37c7.24-2.61,15.79-5.96,19.16,3.4c1.43,3.96-0.04,8.19-4.13,10.32
				l0.03,0.1c1.89-0.52,3.61,0.93,4.82,2.19l10.15,11.22l-7.53,2.71l-7.85-9.06c-1.87-2.16-3.08-2.81-5.93-1.79l-2.17,0.78
				l5.04,13.99l-6.75,2.44L214.28,98L221.57,95.37z M190.66,110.11l30.49,23.43l-6.81,4.1l-6.87-5.45l-12.44,7.48l1.55,8.64
				l-6.37,3.83l-6.49-37.86L190.66,110.11z M145.46,144.59l9.86,10.58l10.51-9.79l-9.86-10.58l5.25-4.89l24.4,26.19l-5.25,4.89
				l-10.7-11.48l-10.51,9.79l10.7,11.48l-5.25,4.89l-24.4-26.19L145.46,144.59z M117.28,179.01l29.75,4.23l0.06-0.08l-21.9-15.39
				l3.95-5.62l29.29,20.58l-5.04,7.18l-29.77-4.19l-0.06,0.08l21.9,15.39l-3.95,5.62l-29.29-20.58L117.28,179.01z M97.92,215.22
				c3.12-7.03,6.61-15.53,15.7-11.49c3.84,1.71,5.89,5.7,4.6,10.12l0.09,0.04c0.93-1.72,3.17-1.96,4.91-1.97l15.13,0.43l-3.24,7.31
				l-11.97-0.6c-2.85-0.14-4.17,0.28-5.39,3.05l-0.94,2.11l13.59,6.03l-2.91,6.56L94.78,222.3L97.92,215.22z M87.19,247.74
				l38.01-5.84l-1.75,7.75l-8.68,1.2l-3.19,14.16l7.32,4.86l-1.63,7.25L85.4,255.64L87.19,247.74z M81.06,292.84
				c0.13-4.61,1.65-11.5,9.5-11.28c4.25,0.12,7.15,3.07,7.8,7.35l0.1,0c0.6-4.86,3.97-8.1,8.38-7.98
				c9.02,0.25,10.13,8.39,10.01,12.9l-0.35,12.51l-35.79-0.99L81.06,292.84z M99.21,347.65c0-2.83,2.29-5.12,5.12-5.12
				c2.83,0,5.12,2.29,5.12,5.12s-2.29,5.12-5.12,5.12C101.51,352.76,99.21,350.47,99.21,347.65z M118.47,411.7l-4.43,2.45
				l-9.22-16.66l28.09-15.55l9.18,16.58l-4.43,2.45l-6.06-10.94l-6.92,3.83l5.55,10.02l-4.43,2.45l-5.55-10.02l-7.89,4.37
				L118.47,411.7z M140.42,435.05c-5.59,4.27-11.09,1.46-15.03-3.69c-2.12-2.78-2.7-4.3-4.01-7.3l4.97-3.04
				c0.39,2.48,1.3,4.97,2.84,6.98c1.48,1.94,4.45,3.78,6.75,2.02c4.86-3.71-5.69-13.36,2.76-19.81c5.7-4.35,11.16-1.52,14.6,2.98
				c1.67,2.19,2.95,4.46,3.75,6.8l-4.57,2.73c-0.53-2.14-1.5-4.24-2.87-6.03c-1.34-1.75-3.84-3.43-6.62-1.31
				C138.57,418.76,148.97,428.52,140.42,435.05z M145.48,453.72l18.9-19.35l-6.58-6.43l3.54-3.62l17.77,17.35l-3.54,3.62l-6.58-6.43
				l-18.9,19.35L145.48,453.72z M185.43,486.13l-5.78-4.18l2.08-7.58l-10.54-7.63l-6.59,4.32l-5.4-3.91l28.97-18.67l5.89,4.26
				L185.43,486.13z M225.03,479.41c-1.68,3.43-5.16,4.7-8.9,3.64l-0.04,0.08c3.75,2.29,5.14,6.25,3.4,9.8
				c-3.56,7.28-10.61,5.16-14.25,3.38l-10.09-4.93l14.1-28.85l10.09,4.93C223.07,469.29,228.12,473.09,225.03,479.41z
				 M244.65,511.14l-18.02-5.71l9.7-30.61l6.14,1.95l-8.17,25.79l11.88,3.77L244.65,511.14z M259.94,514.29l-6.31-1.27l6.34-31.47
				l6.31,1.27L259.94,514.29z M292.83,508.94c-0.59,7.01-6.36,9.2-12.83,8.66c-3.48-0.29-5-0.88-8.1-1.93l1.08-5.73
				c2.1,1.38,4.55,2.37,7.08,2.58c2.43,0.21,5.79-0.76,6.03-3.65c0.52-6.1-13.72-4.76-12.83-15.35c0.6-7.15,6.37-9.29,12.01-8.82
				c2.75,0.23,5.29,0.82,7.56,1.79l-1.04,5.22c-1.94-1.04-4.15-1.74-6.39-1.92c-2.2-0.19-5.12,0.54-5.42,4.02
				C279.51,499.36,293.73,498.21,292.83,508.94z M134.85,300c0-91.21,73.94-165.15,165.15-165.15
				c91.21,0,165.15,73.94,165.15,165.15S391.21,465.15,300,465.15C208.79,465.15,134.85,391.21,134.85,300z M323.88,516.74
				l-1.11-14.03l-12.84,1.02l1.11,14.03l-6.42,0.51l-2.53-32.01l6.42-0.51l1.02,12.93l12.84-1.02l-1.02-12.93l6.42-0.51l2.54,32
				L323.88,516.74z M344.29,513.63l-7.8-31.14l18.38-4.6l1.23,4.91l-12.14,3.04l1.92,7.67l11.11-2.78l1.23,4.91l-11.11,2.78
				l2.19,8.75l12.22-3.06l1.23,4.91L344.29,513.63z M383.52,501.41l-8.05,3.52l-12.87-29.42l8.05-3.52
				c9.02-3.94,18.31-4.39,23.42,7.28S392.54,497.46,383.52,501.41z M433.15,472.55l-15.21-19.58l-1.58,6.82l-5.11-1.33l2.79-11.71
				l4.5-3.5l19.69,25.36L433.15,472.55z M455.99,453c-1.62,1.69-3.42,3.03-5.51,4.08l-3.18-4.2c1.71-0.72,3.32-1.6,4.82-3.16
				c3.86-4.02,1.44-8.94-1.88-12.39l-0.13,0c0.58,2.66-0.1,4.75-1.98,6.71c-4.21,4.38-9.29,4.09-13.57-0.02
				c-5.01-4.81-5.97-10.45-0.94-15.7c6.18-6.44,12.89-2.74,18.34,2.49C458.24,436.85,463.19,445.5,455.99,453z M478.12,426.57
				c-5.18,7.27-12.36,4.58-18.5,0.2c-7.08-5.05-13.24-12.89-7.21-21.35c1.36-1.91,2.94-3.5,4.86-4.84l3.75,3.69
				c-1.59,0.96-3.05,2.06-4.31,3.82c-3.23,4.53-0.13,9.06,3.66,11.99l0.13-0.02c-0.92-2.52-0.59-4.72,0.98-6.93
				c3.52-4.95,8.59-5.4,13.43-1.96C480.57,415.21,482.34,420.65,478.12,426.57z M493.56,401.49c-1.07,2.09-2.4,3.89-4.1,5.5
				l-4.25-3.1c1.43-1.18,2.72-2.49,3.7-4.41c2.54-4.96-1.19-8.98-5.37-11.32l-0.12,0.04c1.32,2.38,1.27,4.58,0.04,7
				c-2.77,5.41-7.71,6.59-13,3.89c-6.18-3.16-8.73-8.29-5.42-14.76c4.06-7.95,11.56-6.33,18.28-2.9
				C491.05,385.38,498.29,392.23,493.56,401.49z M496.12,352.76c-2.83,0-5.12-2.29-5.12-5.12s2.29-5.12,5.12-5.12
				c2.83,0,5.12,2.29,5.12,5.12S498.94,352.76,496.12,352.76z"/>
		</g>
		<path class="st0" d="M106.38,288.1c-4.67-0.13-5.49,3.64-5.59,7.23l-0.09,3.38l10.36,0.29l0.09-3.38
			C111.24,292.29,110.53,288.21,106.38,288.1z"/>
	</g>
	<line class="st1" x1="195.89" y1="306.38" x2="404.23" y2="306.38"/>
	<line class="st1" x1="300.05" y1="190.79" x2="300.05" y2="437.32"/>
	<path class="st0" d="M300.05,306.38H195.89v10.11c-0.54,24.09,7.89,44.12,23,62.13c22.48,26.81,50.7,40.61,81.23,58.7
		L300.05,306.38z M224.93,349.25c1.05-2.83,3.87-11.83,10.3-17.23c0.55-0.47,0.08-1.29,0.66-1.74c5.37-4.26,17.52-6.12,27.94-1.55
		c5.77,2.53,9.67,6.16,11.68,10.13c0.46,0.92,1.69,4.14,1.5,4.9c-0.04,0.15-1.06-1.95-2.57-3.61c-1.56-1.72-3.66-2.63-3.64-2.51
		c0.07,0.39,2.6,2.79,4.68,7.56c1.69,3.88,2.04,6.58,2.36,9.04c0.44,3.34,0.44,6.04,0.37,7.7c-0.05,1.19-0.74,2.26-1.82,2.77
		c-0.85,0.4-2.03,0.87-3.55,1.31c-2.29,0.65-5.36,1.69-7.98,1.69c-0.31,0-0.08-9.62-2.57-17.14c-6.12-18.5-22.18-18.57-22.51-18.49
		c-1.52,0.36,14.38,2.75,18.67,20.18c1.85,7.49,1.74,14.48,1.45,14.5c-2.67,0.17-5.72,0.41-8.42-0.02
		C233.22,363.81,223.87,352.11,224.93,349.25z M289.59,369.51c-0.87,5.74-12.39,9.24-16.8,10.05c-10.83,2.01-26.81-0.06-37.06-4.07
		c-4.63-1.81-9.02-4.46-12.87-7.6c-3.9-3.19-7.2-7.41-8.12-12.55c-0.23-1.29-0.29-2.69-0.03-4c0.2-1.04,0.61-2.02,1.29-2.86
		c2.01-2.49,4.36-2.58,7.29-2.58c-0.06,0.18-1.29,3.24-1.34,3.38c-0.53,1.4-0.19,3.13,1.01,5.14c3.59,6.02,13.93,13.49,28.12,15.7
		c1.19,0.19,2.6,0.28,4.29,0.28c2.01,0,4.05-0.13,5.56-0.22c-0.01-0.02-0.04-0.04-0.05-0.05l0.09,0.05c-0.01,0-0.03,0-0.04,0
		c0.46,0.59,2.26,0.96,3.31,0.96c0.15,0,0.71-0.02,0.76-0.02c2.2-0.11,5.15-0.69,9-1.77c6.82-1.91,7.55-4.77,7.57-5.58
		c0.01-0.45,0.01-0.77-0.04-3.19C283.68,360.76,290.44,363.82,289.59,369.51z"/>
	<g>
		<path class="st0" d="M404.37,225.17c0.03-5.6-1.96-15.36-6.11-18.86c-6.96,0-26.85-3.02-46.92-6.39l0.05,16.24l16.42,10.89
			l-1.09-0.21c-11.55-2.27-23.42-2.27-34.97-0.02l-1.18,0.23l16.46-10.86l-0.05-17c-23.96-4.08-46.86-8.4-46.86-8.4l-0.07,115.59
			h104.18C404.28,269.57,404.15,261.98,404.37,225.17z M367.81,237.66c0,2.89-1.52,5.57-4,7.06l-8.47,5.09
			c-0.2,0.34-0.53,0.66-0.91,0.9l-0.57,2.12c7.64,2.19,13.14,9.28,13.14,17.4c0,9.97-8.12,18.09-18.08,18.09
			c-7.18,0-13.67-4.86-15.59-10.28c-0.72-2.03-1.02-4.31-0.84-6.6c0.12-1.58,0.66-4.04,0.61-4.82c-0.14-1.82-1.71-1.69-1.63-2.25
			c0.22-1.66,2.43-1.8,3.05-1.8c1.16,0,2.04,0.32,3.01,0.88c1.35,0.77,2.64,2.61,2.38,5.12c-0.06,0.54-0.03,1.25-0.03,1.67
			c0,5.55,5.04,9.96,10.78,8.88c3.6-0.68,6.48-3.57,7.15-7.17c1.06-5.72-3.34-10.75-8.88-10.75c-2.53,0-4.42-1.14-5.07-3.05
			l-1.56-7.5c-0.21-0.15-4.87-3.47-8.23-5.87c-2.15-1.53-3.43-4-3.45-6.63l-0.06-6.8l1.21-0.24c11.53-2.29,23.39-2.32,34.93-0.09
			l1.1,0.21V237.66z"/>
		<path class="st0" d="M349.12,233.63c-1.41,0-2.55,1.14-2.55,2.55c0,1.41,1.14,2.55,2.55,2.55c1.41,0,2.55-1.14,2.55-2.55
			C351.67,234.78,350.53,233.63,349.12,233.63z"/>
	</g>
	<path class="st0" d="M300.11,441.51l-1.83-1.08c-4.65-2.75-9.3-5.44-13.79-8.03c-25.15-14.53-48.91-28.25-68.37-51.45
		c-16.58-19.77-24.37-40.88-23.84-64.54c0.65-28.56,0.45-49.02,0.19-74.92c-0.05-4.76-0.09-9.71-0.14-14.94
		c-0.06-6.75,2.15-18.67,8.47-23.85l1-0.82h1.29c13.96,0,95.57-14.49,96.39-14.64l0.65-0.12l0.65,0.12
		c0.82,0.16,82.19,15.46,97.47,15.46h1.32l1.01,0.85c5.45,4.59,7.43,15.71,7.4,21.64c-0.14,23.9-0.13,43.08-0.13,63.38
		c0,11.05,0.01,22.52-0.01,35.42c-0.03,18.44-6.92,36.04-21.06,53.78c-20.27,25.42-45.76,40.11-72.74,55.65
		c-3.99,2.3-8.02,4.62-12.09,7.01L300.11,441.51z M204.57,209.06c-3.18,3.55-5.07,11.5-5.02,17.43c0.05,5.23,0.09,10.17,0.14,14.93
		c0.25,25.96,0.46,46.47-0.19,75.15c-0.49,21.83,6.75,41.37,22.15,59.73c18.64,22.23,41.86,35.64,66.44,49.84
		c3.92,2.27,7.96,4.6,12.03,6.99c3.47-2.02,6.9-4,10.31-5.97c26.38-15.2,51.29-29.55,70.7-53.9c13.27-16.65,19.46-32.31,19.49-49.29
		c0.02-12.89,0.01-24.36,0.01-35.41c-0.01-20.31-0.02-39.5,0.12-63.42c0.03-5-1.69-12.22-4.07-15.26
		c-18.28-0.8-88.51-13.91-96.6-15.43C292,195.89,221.72,208.29,204.57,209.06z"/>
	<g>
		<path class="st0" d="M223.34,227.96h35.14c9.69,0,19.21,3.12,19.21,13.77c0,7.68-4.08,11.77-11.53,13.69v0.16
			c7.76,1.04,12.57,7.12,12.57,12.73c0,14.09-11.37,15.53-22.97,15.53h-32.42V227.96z M243.51,249.34h5.36
			c3.76,0,7.84-1.12,7.84-5.36c0-4.16-3.52-5.44-7.36-5.44h-5.84V249.34z M243.51,272.31h5.6c3.92,0,8.16-1.44,8.16-5.76
			c0-4.8-4-5.68-8-5.68h-5.76V272.31z"/>
	</g>
	<g>
		<path class="st0" d="M338.66,357.23c0.01,5.28,1.54,9.28,6.67,9.27c5.6-0.01,6.79-3.78,6.78-9.22l-0.08-33.22l20.97-0.05
			l0.08,32.82c0.05,18.09-11.07,24.04-27.95,24.09c-15.61,0.04-27.87-6.33-27.92-22.82l-0.09-33.94l21.45-0.05L338.66,357.23z"/>
	</g>
</g>
</svg>
