<?xml version="1.0" encoding="utf-8"?>
<!-- Generator: Adobe Illustrator 27.5.0, SVG Export Plug-In . SVG Version: 6.00 Build 0)  -->
<svg version="1.1" id="BU_Logo" xmlns="http://www.w3.org/2000/svg" xmlns:xlink="http://www.w3.org/1999/xlink" x="0px" y="0px"
	 viewBox="0 0 600 600" style="enable-background:new 0 0 600 600;" xml:space="preserve">
<style type="text/css">
	.st0{fill:#848482;}
	.st1{fill:#C4161C;stroke:#FFFFFF;stroke-width:6;stroke-miterlimit:10;}
	.st2{fill:#FFFFFF;}
	.st3{fill:none;stroke:#FFFFFF;stroke-width:1.769;stroke-miterlimit:10;}
	.st4{fill:#C4161C;}
	.st5{fill:#CC0033;stroke:#FFFFFF;stroke-width:6;stroke-miterlimit:10;}
	.st6{fill:#CC0033;}
</style>
<circle class="st0" cx="-350.94" cy="300" r="234.72"/>
<circle class="st1" cx="-350.94" cy="300" r="165.15"/>
<g>
	<path class="st2" d="M-518.04,381.94l9.18,16.58l-4.43,2.45l-6.06-10.94l-6.92,3.83l5.55,10.02l-4.43,2.45l-5.55-10.02l-7.89,4.37
		l6.1,11.02l-4.43,2.45l-9.22-16.66L-518.04,381.94z"/>
	<path class="st2" d="M-498.47,422.73c-0.53-2.14-1.5-4.24-2.87-6.03c-1.34-1.75-3.84-3.43-6.62-1.31
		c-4.42,3.38,5.98,13.14-2.57,19.67c-5.59,4.27-11.09,1.46-15.03-3.69c-2.12-2.78-2.7-4.3-4.01-7.3l4.97-3.04
		c0.39,2.48,1.3,4.97,2.84,6.98c1.48,1.94,4.45,3.78,6.75,2.02c4.86-3.71-5.69-13.36,2.76-19.81c5.7-4.35,11.16-1.52,14.6,2.98
		c1.67,2.19,2.95,4.46,3.75,6.8L-498.47,422.73z"/>
	<path class="st2" d="M-486.57,434.37l-6.58-6.43l3.54-3.62l17.77,17.35l-3.54,3.62l-6.58-6.43l-18.9,19.35l-4.61-4.5
		L-486.57,434.37z"/>
	<path class="st2" d="M-462.78,448.46l5.89,4.26l-8.62,33.4l-5.78-4.18l2.08-7.58l-10.54-7.63l-6.59,4.32l-5.4-3.91L-462.78,448.46z
		 M-463.69,455.76l-0.08-0.05l-11.53,8.01l7.6,5.5L-463.69,455.76z"/>
	<path class="st2" d="M-441.68,462.54l10.09,4.93c3.72,1.82,8.77,5.62,5.68,11.95c-1.68,3.43-5.16,4.7-8.9,3.64l-0.04,0.08
		c3.75,2.29,5.14,6.25,3.4,9.8c-3.56,7.28-10.61,5.16-14.25,3.38l-10.09-4.93L-441.68,462.54z M-447.77,489.67l2.73,1.33
		c2.69,1.31,6.28,2.25,7.91-1.1c1.84-3.76-0.94-5.83-3.83-7.25l-2.73-1.33L-447.77,489.67z M-441.59,477.02l2.36,1.15
		c2.44,1.19,5.72,2.13,7.17-0.85c1.64-3.35-1.18-5.03-3.82-6.32l-2.23-1.09L-441.59,477.02z"/>
	<path class="st2" d="M-414.61,474.81l6.14,1.95l-8.17,25.79l11.88,3.77l-1.53,4.82l-18.02-5.71L-414.61,474.81z"/>
	<path class="st2" d="M-390.98,481.55l6.31,1.27l-6.34,31.47l-6.31-1.27L-390.98,481.55z"/>
	<path class="st2" d="M-359.15,491.72c-1.94-1.04-4.15-1.74-6.39-1.92c-2.2-0.19-5.12,0.54-5.42,4.02
		c-0.47,5.55,13.75,4.39,12.85,15.12c-0.59,7.01-6.36,9.2-12.83,8.66c-3.48-0.29-5-0.88-8.1-1.93l1.08-5.73
		c2.1,1.38,4.55,2.37,7.08,2.58c2.43,0.21,5.79-0.76,6.03-3.65c0.52-6.1-13.72-4.76-12.83-15.35c0.6-7.15,6.37-9.29,12.01-8.82
		c2.75,0.23,5.29,0.82,7.56,1.79L-359.15,491.72z"/>
	<path class="st2" d="M-348.86,486.26l6.42-0.51l1.02,12.93l12.84-1.02l-1.02-12.93l6.42-0.51l2.54,32l-6.42,0.51l-1.11-14.03
		l-12.84,1.02l1.11,14.03l-6.42,0.51L-348.86,486.26z"/>
	<path class="st2" d="M-314.45,482.49l18.38-4.6l1.23,4.91l-12.14,3.04l1.92,7.67l11.11-2.78l1.23,4.91l-11.11,2.78l2.19,8.75
		l12.22-3.06l1.23,4.91l-18.47,4.62L-314.45,482.49z"/>
	<path class="st2" d="M-288.34,475.51l8.05-3.52c9.02-3.94,18.31-4.39,23.42,7.28s-1.53,18.19-10.55,22.14l-8.05,3.52
		L-288.34,475.51z M-271.6,497.71l3.29-1.44c4.93-2.16,8.09-7.91,5.29-14.31c-2.8-6.41-9.17-7.99-14.1-5.83l-3.29,1.44
		L-271.6,497.71z"/>
	<path class="st2" d="M-236.9,446.74l4.5-3.5l19.69,25.36l-5.09,3.95l-15.21-19.58l-1.58,6.82l-5.11-1.33L-236.9,446.74z"/>
	<path class="st2" d="M-203.64,452.89c1.71-0.72,3.32-1.6,4.82-3.16c3.86-4.02,1.44-8.94-1.88-12.39l-0.13,0
		c0.58,2.66-0.1,4.75-1.98,6.71c-4.21,4.38-9.29,4.09-13.57-0.02c-5.01-4.81-5.97-10.45-0.94-15.7c6.18-6.44,12.89-2.74,18.34,2.49
		c6.27,6.02,11.23,14.67,4.03,22.17c-1.62,1.69-3.42,3.03-5.51,4.08L-203.64,452.89z M-206.66,432.39c-2.19-2.1-5.01-3.02-7.21-0.73
		c-2.07,2.16-0.84,5.06,1.22,7.04c2.26,2.17,5.24,3.25,7.37,1.02C-203.11,437.45-204.33,434.62-206.66,432.39z"/>
	<path class="st2" d="M-189.92,404.27c-1.59,0.96-3.05,2.06-4.31,3.82c-3.23,4.53-0.13,9.06,3.66,11.99l0.13-0.02
		c-0.92-2.52-0.59-4.72,0.98-6.93c3.52-4.95,8.59-5.4,13.43-1.96c5.66,4.03,7.43,9.47,3.21,15.39c-5.18,7.27-12.36,4.58-18.5,0.2
		c-7.08-5.05-13.24-12.89-7.21-21.35c1.36-1.91,2.94-3.5,4.86-4.84L-189.92,404.27z M-183.95,424.12c2.47,1.76,5.39,2.26,7.24-0.32
		c1.74-2.43,0.1-5.13-2.23-6.78c-2.55-1.82-5.65-2.45-7.44,0.06C-188.2,419.62-186.58,422.25-183.95,424.12z"/>
	<path class="st2" d="M-165.74,403.88c1.43-1.18,2.72-2.49,3.7-4.41c2.54-4.96-1.19-8.98-5.37-11.32l-0.12,0.04
		c1.32,2.38,1.27,4.58,0.04,7c-2.77,5.41-7.71,6.59-13,3.89c-6.18-3.16-8.73-8.29-5.42-14.76c4.06-7.95,11.56-6.33,18.28-2.9
		c7.74,3.96,14.98,10.82,10.25,20.07c-1.07,2.09-2.4,3.89-4.1,5.5L-165.74,403.88z M-174.54,385.12c-2.7-1.38-5.67-1.45-7.11,1.38
		c-1.36,2.66,0.65,5.09,3.19,6.39c2.79,1.42,5.95,1.6,7.36-1.15C-169.68,388.95-171.67,386.59-174.54,385.12z"/>
</g>
<path class="st2" d="M-546.61,352.76c-2.83,0-5.12-2.29-5.12-5.12c0-2.83,2.29-5.12,5.12-5.12c2.83,0,5.12,2.29,5.12,5.12
	C-541.49,350.47-543.78,352.76-546.61,352.76z"/>
<path class="st2" d="M-154.82,352.76c-2.83,0-5.12-2.29-5.12-5.12c0-2.83,2.29-5.12,5.12-5.12c2.83,0,5.12,2.29,5.12,5.12
	C-149.71,350.47-152,352.76-154.82,352.76z"/>
<g>
	<path class="st2" d="M-570.23,305.35l0.35-12.51c0.13-4.61,1.65-11.5,9.5-11.28c4.25,0.12,7.15,3.07,7.8,7.35l0.1,0
		c0.6-4.86,3.97-8.1,8.38-7.98c9.02,0.25,10.13,8.39,10.01,12.9l-0.35,12.51L-570.23,305.35z M-555.57,298.57l0.08-2.92
		c0.08-3.02-0.48-6.79-4.17-6.89c-4.15-0.12-4.56,3.52-4.65,6.8l-0.08,2.77L-555.57,298.57z M-539.88,299l0.09-3.38
		c0.09-3.33-0.62-7.41-4.77-7.52c-4.67-0.13-5.49,3.64-5.59,7.23l-0.09,3.38L-539.88,299z"/>
	<path class="st2" d="M-565.54,255.64l1.78-7.91l38.01-5.84l-1.75,7.75l-8.68,1.2l-3.19,14.16l7.32,4.86l-1.63,7.25L-565.54,255.64z
		 M-557.66,253.37l-0.02,0.1l13.27,8.3l2.3-10.21L-557.66,253.37z"/>
	<path class="st2" d="M-556.16,222.3l3.14-7.08c3.12-7.03,6.61-15.53,15.7-11.49c3.84,1.71,5.89,5.7,4.6,10.12l0.09,0.04
		c0.93-1.72,3.17-1.96,4.91-1.97l15.13,0.43l-3.24,7.31l-11.97-0.6c-2.85-0.14-4.17,0.28-5.39,3.05l-0.94,2.11l13.59,6.03
		l-2.91,6.56L-556.16,222.3z M-539.28,221.93l0.96-2.16c1.43-3.23,2.61-7.15-1.47-8.96c-3.94-1.75-5.89,1.76-7.34,5.04l-0.96,2.16
		L-539.28,221.93z"/>
	<path class="st2" d="M-538.73,186.22l5.07-7.22l29.75,4.23l0.06-0.08l-21.9-15.39l3.95-5.62l29.29,20.58l-5.04,7.18l-29.77-4.19
		l-0.06,0.08l21.9,15.39l-3.95,5.62L-538.73,186.22z"/>
	<path class="st2" d="M-510.73,149.48l5.25-4.89l9.86,10.58l10.51-9.79l-9.86-10.58l5.25-4.89l24.4,26.19l-5.25,4.89l-10.7-11.48
		l-10.51,9.79l10.7,11.48l-5.25,4.89L-510.73,149.48z"/>
	<path class="st2" d="M-467.22,114.29l6.94-4.18l30.49,23.43l-6.81,4.1l-6.87-5.45l-12.44,7.48l1.55,8.64l-6.37,3.83L-467.22,114.29
		z M-460.14,118.4l-0.09,0.05l3.17,15.33l8.96-5.39L-460.14,118.4z"/>
	<path class="st2" d="M-436.66,98l7.29-2.63c7.24-2.61,15.79-5.96,19.16,3.4c1.43,3.96-0.04,8.19-4.13,10.32l0.03,0.1
		c1.89-0.52,3.61,0.93,4.82,2.19l10.15,11.22l-7.53,2.71l-7.85-9.06c-1.87-2.16-3.08-2.81-5.93-1.79l-2.17,0.78l5.04,13.99
		l-6.75,2.44L-436.66,98z M-424.72,109.94l2.22-0.8c3.33-1.2,6.97-3.06,5.45-7.25c-1.46-4.05-5.35-3.03-8.72-1.82l-2.22,0.8
		L-424.72,109.94z"/>
	<path class="st2" d="M-392.34,90.58l-10.1,1.81l-1-5.55l27.26-4.89l1,5.55l-10.1,1.81l5.32,29.68l-7.07,1.27L-392.34,90.58z"/>
	<path class="st2" d="M-343.78,80.58l7.15,0.71l-2.03,20.57c-0.6,6.07,0.95,10.25,6.41,10.79c5.46,0.54,7.79-3.25,8.39-9.33
		l2.03-20.57l7.15,0.71l-2.25,22.76c-0.94,9.54-6.74,12.94-15.88,12.04s-14.16-5.37-13.22-14.91L-343.78,80.58z"/>
	<path class="st2" d="M-298.39,86.79l8.4,2.68l4.86,29.65l0.1,0.03l8.13-25.5l6.55,2.09l-10.88,34.1l-8.35-2.66l-4.91-29.66
		l-0.1-0.03l-8.13,25.5l-6.55-2.09L-298.39,86.79z"/>
	<path class="st2" d="M-257.12,101.98l6.43,3.18l-15.87,32.08l-6.43-3.18L-257.12,101.98z"/>
	<path class="st2" d="M-240.62,110l6.34,4.36l-8.36,28.35l0.08,0.06l23.4-18.01l5.87,4.04l-30.21,22.66l-7.27-5L-240.62,110z"/>
	<path class="st2" d="M-203.86,137.36l15,14.88l-3.97,4l-9.9-9.82l-6.21,6.26l9.07,8.99l-3.97,4l-9.07-8.99l-7.08,7.14l9.98,9.9
		l-3.97,4l-15.07-14.95L-203.86,137.36z"/>
	<path class="st2" d="M-179.33,163.32l4.49,6.31c4.46,6.27,9.98,13.6,1.88,19.37c-3.43,2.44-7.9,2.16-11.05-1.21l-0.08,0.06
		c1,1.68,0.07,3.73-0.81,5.23l-8.08,12.79l-4.63-6.52l6.62-9.99c1.58-2.38,1.88-3.73,0.13-6.19l-1.34-1.88l-12.12,8.62l-4.16-5.85
		L-179.33,163.32z M-187.63,178.03l1.37,1.92c2.05,2.88,4.82,5.89,8.45,3.3c3.51-2.5,1.49-5.96-0.59-8.89l-1.37-1.92L-187.63,178.03
		z"/>
	<path class="st2" d="M-155.16,216.79c-0.09-2.46-0.67-4.97-1.75-7.23c-1.06-2.22-3.4-4.63-6.92-2.95
		c-5.6,2.67,3.52,15.71-7.31,20.88c-7.08,3.38-12.44-0.94-15.55-7.46c-1.68-3.52-1.97-5.31-2.71-8.88l6.12-2.18
		c-0.14,2.8,0.29,5.72,1.5,8.26c1.17,2.45,3.99,5.14,6.91,3.75c6.16-2.94-3.15-15.88,7.54-20.99c7.22-3.45,12.53,0.89,15.25,6.59
		c1.33,2.78,2.19,5.55,2.53,8.28L-155.16,216.79z"/>
	<path class="st2" d="M-143.86,228.34l2.23,6.82l-34.02,11.14l-2.23-6.82L-143.86,228.34z"/>
	<path class="st2" d="M-141.96,256.39l-1.92-10.08l5.54-1.05l5.17,27.21l-5.54,1.05l-1.92-10.08l-29.63,5.63l-1.34-7.05
		L-141.96,256.39z"/>
	<path class="st2" d="M-153.6,294.53l21.43-13.42l0.14,8.41l-14.89,8.7l15.16,8.37l0.12,7.59l-21.84-12.47l-14.15,0.23l-0.12-7.18
		L-153.6,294.53z"/>
</g>
<path class="st2" d="M-350.83,437.32c31.66-18.58,61.07-33.23,83.84-61.8c11.99-15.04,20.25-31.74,20.28-51.54v-17.6h-104.18"/>
<path class="st2" d="M-350.83,190.79c0,0-82.58,14.7-97.02,14.7c-5.02,4.11-7.21,14.46-7.15,21.03c0.3,33.86,0.71,46.02-0.05,79.86
	h104.16"/>
<path class="st0" d="M-350.89,306.38h-104.16v10.11c-0.54,24.09,7.89,44.12,23,62.13c22.48,26.81,50.7,40.61,81.23,58.7"/>
<path class="st0" d="M-350.89,306.38h104.18c0.05-36.81-0.08-44.4,0.13-81.21c0.03-5.6-1.96-15.36-6.11-18.86
	c-15.79,0-98.14-15.53-98.14-15.53"/>
<line class="st3" x1="-455.05" y1="306.38" x2="-246.71" y2="306.38"/>
<line class="st3" x1="-350.89" y1="190.79" x2="-350.89" y2="437.32"/>
<g>
	<path class="st2" d="M-374.56,364.69c1.08-0.51,1.77-1.58,1.82-2.77c0.07-1.66,0.07-4.36-0.37-7.7c-0.32-2.45-0.67-5.15-2.36-9.04
		c-2.08-4.77-4.61-7.17-4.68-7.56c-0.02-0.12,2.08,0.79,3.64,2.51c1.51,1.67,2.53,3.76,2.57,3.61c0.18-0.76-1.04-3.98-1.5-4.9
		c-2.01-3.98-5.91-7.6-11.68-10.13c-10.41-4.57-22.57-2.71-27.94,1.55c-0.57,0.45-0.1,1.28-0.66,1.74
		c-6.43,5.41-9.25,14.4-10.3,17.23c-1.06,2.85,8.29,14.56,26.55,17.45c2.7,0.43,5.75,0.2,8.42,0.02c0.29-0.02,0.4-7.01-1.45-14.5
		c-4.29-17.43-20.19-19.81-18.67-20.18c0.33-0.08,16.39-0.01,22.51,18.49c2.49,7.52,2.26,17.14,2.57,17.14
		c2.62,0,5.69-1.04,7.98-1.69C-376.58,365.56-375.41,365.09-374.56,364.69z"/>
	<path class="st2" d="M-436.23,351.33c0.2-1.04,0.61-2.02,1.29-2.86c2.01-2.49,4.36-2.58,7.29-2.58c-0.06,0.18-1.29,3.24-1.34,3.38
		c-0.53,1.4-0.19,3.13,1.01,5.14c3.59,6.02,13.93,13.49,28.12,15.7c1.19,0.19,2.6,0.28,4.29,0.28c2.03,0,4.09-0.13,5.6-0.23
		l-0.09-0.05c0.39,0.62,2.27,1.01,3.36,1.01c0.15,0,0.71-0.02,0.76-0.02c2.2-0.11,5.15-0.69,9-1.77c6.82-1.91,7.55-4.77,7.57-5.58
		c0.01-0.45,0.01-0.77-0.04-3.19c2.15,0.2,8.91,3.27,8.06,8.95c-0.87,5.74-12.39,9.24-16.8,10.05c-10.83,2.01-26.81-0.06-37.06-4.07
		c-4.63-1.81-9.02-4.46-12.87-7.6c-3.9-3.19-7.2-7.41-8.12-12.55C-436.43,354.04-436.49,352.64-436.23,351.33z"/>
</g>
<path class="st2" d="M-299.55,216.16l-0.06-17.52l-4.36-0.97l0.05,18.52l-16.46,10.86l1.18-0.23c11.55-2.26,23.43-2.25,34.97,0.02
	l1.09,0.21L-299.55,216.16z"/>
<path class="st2" d="M-295.6,249.81l8.47-5.09c2.48-1.49,4-4.17,4-7.06v-6.45l-1.1-0.21c-11.54-2.23-23.41-2.19-34.93,0.09
	l-1.21,0.24l0.06,6.8c0.02,2.64,1.3,5.1,3.45,6.63c3.36,2.4,8.02,5.72,8.23,5.87l1.56,7.5c0.65,1.91,2.53,3.05,5.07,3.05
	c5.55,0,9.94,5.02,8.88,10.75c-0.67,3.6-3.55,6.49-7.15,7.17c-5.74,1.08-10.78-3.33-10.78-8.88c0-0.42-0.03-1.13,0.03-1.67
	c0.26-2.51-1.03-4.35-2.38-5.12c-0.97-0.56-1.85-0.88-3.01-0.88c-0.62,0-2.83,0.14-3.05,1.8c-0.08,0.56,1.49,0.43,1.63,2.25
	c0.06,0.78-0.48,3.24-0.61,4.82c-0.19,2.29,0.12,4.57,0.84,6.6c1.92,5.43,8.42,10.28,15.59,10.28c9.97,0,18.08-8.12,18.08-18.09
	c0-8.11-5.5-15.2-13.14-17.4l0.57-2.12C-296.13,250.46-295.79,250.15-295.6,249.81z M-301.82,238.74c-1.41,0-2.55-1.14-2.55-2.55
	s1.14-2.55,2.55-2.55c1.41,0,2.55,1.14,2.55,2.55S-300.41,238.74-301.82,238.74z"/>
<path class="st2" d="M-350.83,441.51l-1.83-1.08c-4.65-2.75-9.3-5.44-13.79-8.03c-25.15-14.53-48.91-28.25-68.37-51.45
	c-16.58-19.77-24.37-40.88-23.84-64.54c0.65-28.56,0.45-49.02,0.19-74.92c-0.05-4.76-0.09-9.71-0.14-14.94
	c-0.06-6.75,2.15-18.67,8.47-23.85l1-0.82h1.29c13.96,0,95.57-14.49,96.39-14.64l0.65-0.12l0.65,0.12
	c0.82,0.16,82.19,15.46,97.47,15.46h1.32l1.01,0.85c5.45,4.59,7.43,15.71,7.4,21.64c-0.14,23.9-0.13,43.08-0.13,63.38
	c0,11.05,0.01,22.52-0.01,35.42c-0.03,18.44-6.92,36.04-21.06,53.78c-20.27,25.42-45.76,40.11-72.74,55.65
	c-3.99,2.3-8.02,4.62-12.09,7.01L-350.83,441.51z M-446.37,209.06c-3.18,3.55-5.07,11.5-5.02,17.43c0.05,5.23,0.09,10.17,0.14,14.93
	c0.25,25.96,0.46,46.47-0.19,75.15c-0.49,21.83,6.75,41.37,22.15,59.73c18.64,22.23,41.86,35.64,66.44,49.84
	c3.92,2.27,7.96,4.6,12.03,6.99c3.47-2.02,6.9-4,10.31-5.97c26.38-15.2,51.29-29.55,70.7-53.9c13.27-16.65,19.46-32.31,19.49-49.29
	c0.02-12.89,0.01-24.36,0.01-35.41c-0.01-20.31-0.02-39.5,0.12-63.42c0.03-5-1.69-12.22-4.07-15.26
	c-18.28-0.8-88.51-13.91-96.6-15.43C-358.95,195.89-429.22,208.29-446.37,209.06z"/>
<g>
	<path class="st4" d="M-427.6,227.96h35.14c9.69,0,19.21,3.12,19.21,13.77c0,7.68-4.08,11.77-11.53,13.69v0.16
		c7.76,1.04,12.57,7.12,12.57,12.73c0,14.09-11.37,15.53-22.97,15.53h-32.42V227.96z M-407.43,249.34h5.36
		c3.76,0,7.84-1.12,7.84-5.36c0-4.16-3.52-5.44-7.36-5.44h-5.84V249.34z M-407.43,272.31h5.6c3.92,0,8.16-1.44,8.16-5.76
		c0-4.8-4-5.68-8-5.68h-5.76V272.31z"/>
</g>
<g>
	<path class="st4" d="M-312.28,357.23c0.01,5.28,1.54,9.28,6.67,9.27c5.6-0.01,6.79-3.78,6.78-9.22l-0.08-33.22l20.97-0.05
		l0.08,32.82c0.05,18.09-11.07,24.04-27.95,24.09c-15.61,0.04-27.87-6.33-27.92-22.82l-0.09-33.94l21.45-0.05L-312.28,357.23z"/>
</g>
<g>
	<g>
		<path class="st0" d="M922.59,523.97c-62.83,0-121.9-24.47-166.32-68.89c-44.43-44.43-68.89-103.49-68.89-166.32
			c0-62.83,24.47-121.9,68.89-166.32s103.5-68.89,166.32-68.89s121.9,24.47,166.32,68.89c44.43,44.43,68.89,103.49,68.89,166.32
			s-24.47,121.9-68.89,166.32C1044.49,499.51,985.42,523.97,922.59,523.97z"/>
		<path class="st2" d="M922.59,54.04c129.63,0,234.72,105.09,234.72,234.72s-105.09,234.72-234.72,234.72
			S687.87,418.39,687.87,288.76S792.96,54.04,922.59,54.04 M922.59,53.04c-31.82,0-62.69,6.23-91.75,18.52
			c-28.07,11.87-53.28,28.87-74.93,50.52c-21.65,21.65-38.64,46.86-50.52,74.93c-12.29,29.06-18.52,59.93-18.52,91.75
			s6.23,62.69,18.52,91.75c11.87,28.07,28.87,53.28,50.52,74.93c21.65,21.65,46.86,38.64,74.93,50.52
			c29.06,12.29,59.93,18.52,91.75,18.52s62.69-6.23,91.75-18.52c28.07-11.87,53.28-28.87,74.93-50.52
			c21.65-21.65,38.64-46.86,50.52-74.93c12.29-29.06,18.52-59.93,18.52-91.75s-6.23-62.69-18.52-91.75
			c-11.87-28.07-28.87-53.28-50.52-74.93c-21.65-21.65-46.86-38.64-74.93-50.52C985.28,59.27,954.41,53.04,922.59,53.04
			L922.59,53.04z"/>
	</g>
	<circle class="st5" cx="922.59" cy="288.76" r="165.15"/>
	<g>
		<path class="st2" d="M755.49,370.69l9.18,16.58l-4.43,2.45l-6.06-10.94l-6.92,3.83l5.55,10.02l-4.43,2.45l-5.55-10.02l-7.89,4.37
			l6.1,11.02l-4.43,2.45l-9.22-16.66L755.49,370.69z"/>
		<path class="st2" d="M775.06,411.48c-0.53-2.14-1.5-4.24-2.87-6.03c-1.34-1.75-3.84-3.43-6.62-1.31
			c-4.42,3.38,5.98,13.14-2.57,19.67c-5.59,4.27-11.09,1.46-15.03-3.69c-2.12-2.78-2.7-4.3-4.01-7.3l4.97-3.04
			c0.39,2.48,1.3,4.97,2.84,6.98c1.48,1.94,4.45,3.78,6.75,2.02c4.86-3.71-5.69-13.36,2.76-19.81c5.7-4.35,11.16-1.52,14.6,2.98
			c1.67,2.19,2.95,4.46,3.75,6.8L775.06,411.48z"/>
		<path class="st2" d="M786.96,423.13l-6.58-6.43l3.54-3.62l17.77,17.35l-3.54,3.62l-6.58-6.43l-18.9,19.35l-4.61-4.5L786.96,423.13
			z"/>
		<path class="st2" d="M810.75,437.22l5.89,4.26l-8.62,33.4l-5.78-4.18l2.08-7.58l-10.54-7.63l-6.59,4.32l-5.4-3.91L810.75,437.22z
			 M809.84,444.51l-0.08-0.05l-11.53,8.01l7.6,5.5L809.84,444.51z"/>
		<path class="st2" d="M831.85,451.29l10.09,4.93c3.72,1.82,8.77,5.62,5.68,11.95c-1.68,3.43-5.16,4.7-8.9,3.64l-0.04,0.08
			c3.75,2.29,5.14,6.25,3.4,9.8c-3.56,7.28-10.61,5.16-14.25,3.38l-10.09-4.93L831.85,451.29z M825.76,478.43l2.73,1.33
			c2.69,1.31,6.28,2.25,7.91-1.1c1.84-3.76-0.94-5.83-3.83-7.25l-2.73-1.33L825.76,478.43z M831.94,465.78l2.36,1.15
			c2.44,1.19,5.72,2.13,7.17-0.85c1.64-3.35-1.18-5.03-3.82-6.32l-2.23-1.09L831.94,465.78z"/>
		<path class="st2" d="M858.92,463.57l6.14,1.95l-8.17,25.79l11.88,3.77l-1.53,4.82l-18.02-5.71L858.92,463.57z"/>
		<path class="st2" d="M882.55,470.3l6.31,1.27l-6.34,31.47l-6.31-1.27L882.55,470.3z"/>
		<path class="st2" d="M914.38,480.48c-1.94-1.04-4.15-1.74-6.39-1.92c-2.2-0.19-5.12,0.54-5.42,4.02
			c-0.47,5.55,13.75,4.39,12.85,15.12c-0.59,7.01-6.36,9.2-12.83,8.66c-3.48-0.29-5-0.88-8.1-1.93l1.08-5.73
			c2.1,1.38,4.55,2.37,7.08,2.58c2.43,0.21,5.79-0.76,6.03-3.65c0.52-6.1-13.72-4.76-12.83-15.35c0.6-7.15,6.37-9.29,12.01-8.82
			c2.75,0.23,5.29,0.82,7.56,1.79L914.38,480.48z"/>
		<path class="st2" d="M924.67,475.02l6.42-0.51l1.02,12.93l12.84-1.02l-1.02-12.93l6.42-0.51l2.54,32l-6.42,0.51l-1.11-14.03
			l-12.84,1.02l1.11,14.03l-6.42,0.51L924.67,475.02z"/>
		<path class="st2" d="M959.08,471.24l18.38-4.6l1.23,4.91l-12.14,3.04l1.92,7.67l11.11-2.78l1.23,4.91l-11.11,2.78l2.19,8.75
			l12.22-3.06l1.23,4.91l-18.47,4.62L959.08,471.24z"/>
		<path class="st2" d="M985.19,464.27l8.05-3.52c9.02-3.94,18.31-4.39,23.42,7.28s-1.53,18.19-10.55,22.14l-8.05,3.52L985.19,464.27
			z M1001.93,486.47l3.29-1.44c4.93-2.16,8.09-7.91,5.29-14.31c-2.8-6.41-9.17-7.99-14.1-5.83l-3.29,1.44L1001.93,486.47z"/>
		<path class="st2" d="M1036.63,435.49l4.5-3.5l19.69,25.36l-5.09,3.95l-15.21-19.58l-1.58,6.82l-5.11-1.33L1036.63,435.49z"/>
		<path class="st2" d="M1069.89,441.64c1.71-0.72,3.32-1.6,4.82-3.16c3.86-4.02,1.44-8.94-1.88-12.39l-0.13,0
			c0.58,2.66-0.1,4.75-1.98,6.71c-4.21,4.38-9.29,4.09-13.57-0.02c-5.01-4.81-5.97-10.45-0.94-15.7c6.18-6.44,12.89-2.74,18.34,2.49
			c6.27,6.02,11.23,14.67,4.03,22.17c-1.62,1.69-3.42,3.03-5.51,4.08L1069.89,441.64z M1066.87,421.14
			c-2.19-2.1-5.01-3.02-7.21-0.73c-2.07,2.16-0.84,5.06,1.22,7.04c2.26,2.17,5.24,3.25,7.37,1.02
			C1070.42,426.21,1069.19,423.37,1066.87,421.14z"/>
		<path class="st2" d="M1083.61,393.03c-1.59,0.96-3.05,2.06-4.31,3.82c-3.23,4.53-0.13,9.06,3.66,11.99l0.13-0.02
			c-0.92-2.52-0.59-4.72,0.98-6.93c3.52-4.95,8.59-5.4,13.43-1.96c5.66,4.03,7.43,9.47,3.21,15.39c-5.18,7.27-12.36,4.58-18.5,0.2
			c-7.08-5.05-13.24-12.89-7.21-21.35c1.36-1.91,2.94-3.5,4.86-4.84L1083.61,393.03z M1089.58,412.87c2.47,1.76,5.39,2.26,7.24-0.32
			c1.74-2.43,0.1-5.13-2.23-6.78c-2.55-1.82-5.65-2.45-7.44,0.06C1085.32,408.37,1086.95,411,1089.58,412.87z"/>
		<path class="st2" d="M1107.79,392.64c1.43-1.18,2.72-2.49,3.7-4.41c2.54-4.96-1.19-8.98-5.37-11.32l-0.12,0.04
			c1.32,2.38,1.27,4.58,0.04,7c-2.77,5.41-7.71,6.59-13,3.89c-6.18-3.16-8.73-8.29-5.42-14.76c4.06-7.95,11.56-6.33,18.28-2.9
			c7.74,3.96,14.98,10.82,10.25,20.07c-1.07,2.09-2.4,3.89-4.1,5.5L1107.79,392.64z M1098.99,373.87c-2.7-1.38-5.67-1.45-7.11,1.38
			c-1.36,2.66,0.65,5.09,3.19,6.39c2.79,1.42,5.95,1.6,7.36-1.15C1103.85,377.7,1101.86,375.34,1098.99,373.87z"/>
	</g>
	<path class="st2" d="M726.92,341.52c-2.83,0-5.12-2.29-5.12-5.12s2.29-5.12,5.12-5.12c2.83,0,5.12,2.29,5.12,5.12
		S729.74,341.52,726.92,341.52z"/>
	<path class="st2" d="M1118.71,341.52c-2.83,0-5.12-2.29-5.12-5.12s2.29-5.12,5.12-5.12c2.83,0,5.12,2.29,5.12,5.12
		S1121.53,341.52,1118.71,341.52z"/>
	<g>
		<path class="st2" d="M703.3,294.1l0.35-12.51c0.13-4.61,1.65-11.5,9.5-11.28c4.25,0.12,7.15,3.07,7.8,7.35l0.1,0
			c0.6-4.86,3.97-8.1,8.38-7.98c9.02,0.25,10.13,8.39,10.01,12.9l-0.35,12.51L703.3,294.1z M717.96,287.32l0.08-2.92
			c0.08-3.02-0.48-6.79-4.17-6.89c-4.15-0.12-4.56,3.52-4.65,6.8l-0.08,2.77L717.96,287.32z M733.64,287.76l0.09-3.38
			c0.09-3.33-0.62-7.41-4.77-7.52c-4.67-0.13-5.49,3.64-5.59,7.23l-0.09,3.38L733.64,287.76z"/>
		<path class="st2" d="M707.99,244.4l1.78-7.91l38.01-5.84l-1.75,7.75l-8.68,1.2l-3.19,14.16l7.32,4.86l-1.63,7.25L707.99,244.4z
			 M715.87,242.13l-0.02,0.1l13.27,8.3l2.3-10.21L715.87,242.13z"/>
		<path class="st2" d="M717.37,211.05l3.14-7.08c3.12-7.03,6.61-15.53,15.7-11.49c3.84,1.71,5.89,5.7,4.6,10.12l0.09,0.04
			c0.93-1.72,3.17-1.96,4.91-1.97l15.13,0.43l-3.24,7.31l-11.97-0.6c-2.85-0.14-4.17,0.28-5.39,3.05l-0.94,2.11l13.59,6.03
			l-2.91,6.56L717.37,211.05z M734.25,210.69l0.96-2.16c1.43-3.23,2.61-7.15-1.47-8.96c-3.94-1.75-5.89,1.76-7.34,5.04l-0.96,2.16
			L734.25,210.69z"/>
		<path class="st2" d="M734.8,174.98l5.07-7.22l29.75,4.23l0.06-0.08l-21.9-15.39l3.95-5.62l29.29,20.58l-5.04,7.18l-29.77-4.19
			l-0.06,0.08l21.9,15.39l-3.95,5.62L734.8,174.98z"/>
		<path class="st2" d="M762.8,138.24l5.25-4.89l9.86,10.58l10.51-9.79l-9.86-10.58l5.25-4.89l24.4,26.19l-5.25,4.89l-10.7-11.48
			l-10.51,9.79l10.7,11.48l-5.25,4.89L762.8,138.24z"/>
		<path class="st2" d="M806.31,103.04l6.94-4.18l30.49,23.43l-6.81,4.1l-6.87-5.45l-12.44,7.48l1.55,8.64l-6.37,3.83L806.31,103.04z
			 M813.39,107.16l-0.09,0.05l3.17,15.33l8.96-5.39L813.39,107.16z"/>
		<path class="st2" d="M836.87,86.75l7.29-2.63c7.24-2.61,15.79-5.96,19.16,3.4c1.43,3.96-0.04,8.19-4.13,10.32l0.03,0.1
			c1.89-0.52,3.61,0.93,4.82,2.19l10.15,11.22l-7.53,2.71l-7.85-9.06c-1.87-2.16-3.08-2.81-5.93-1.79l-2.17,0.78l5.04,13.99
			l-6.75,2.44L836.87,86.75z M848.81,98.69l2.22-0.8c3.33-1.2,6.97-3.06,5.45-7.25c-1.46-4.05-5.35-3.03-8.72-1.82l-2.22,0.8
			L848.81,98.69z"/>
		<path class="st2" d="M881.19,79.33l-10.1,1.81l-1-5.55l27.26-4.89l1,5.55l-10.1,1.81l5.32,29.68l-7.07,1.27L881.19,79.33z"/>
		<path class="st2" d="M929.75,69.33l7.15,0.71l-2.03,20.57c-0.6,6.07,0.95,10.25,6.41,10.79c5.46,0.54,7.79-3.25,8.39-9.33
			l2.03-20.57l7.15,0.71l-2.25,22.76c-0.94,9.54-6.74,12.94-15.88,12.04s-14.16-5.37-13.22-14.91L929.75,69.33z"/>
		<path class="st2" d="M975.14,75.55l8.4,2.68l4.86,29.65l0.1,0.03l8.13-25.5l6.55,2.09l-10.88,34.1l-8.35-2.66l-4.91-29.66
			l-0.1-0.03l-8.13,25.5l-6.55-2.09L975.14,75.55z"/>
		<path class="st2" d="M1016.41,90.74l6.43,3.18L1006.97,126l-6.43-3.18L1016.41,90.74z"/>
		<path class="st2" d="M1032.91,98.76l6.34,4.36l-8.36,28.35l0.08,0.06l23.4-18.01l5.87,4.04l-30.21,22.66l-7.27-5L1032.91,98.76z"
			/>
		<path class="st2" d="M1069.67,126.12l15,14.88l-3.97,4l-9.9-9.82l-6.21,6.26l9.07,8.99l-3.97,4l-9.07-8.99l-7.08,7.14l9.98,9.9
			l-3.97,4l-15.07-14.95L1069.67,126.12z"/>
		<path class="st2" d="M1094.2,152.08l4.49,6.31c4.46,6.27,9.98,13.6,1.88,19.37c-3.43,2.44-7.9,2.16-11.05-1.21l-0.08,0.06
			c1,1.68,0.07,3.73-0.81,5.23l-8.08,12.79l-4.63-6.52l6.62-9.99c1.58-2.38,1.88-3.73,0.13-6.19l-1.34-1.88l-12.12,8.62l-4.16-5.85
			L1094.2,152.08z M1085.9,166.78l1.37,1.92c2.05,2.88,4.82,5.89,8.45,3.3c3.51-2.5,1.49-5.96-0.59-8.89l-1.37-1.92L1085.9,166.78z"
			/>
		<path class="st2" d="M1118.37,205.55c-0.09-2.46-0.67-4.97-1.75-7.23c-1.06-2.22-3.4-4.63-6.92-2.95
			c-5.6,2.67,3.52,15.71-7.31,20.88c-7.08,3.38-12.44-0.94-15.55-7.46c-1.68-3.52-1.97-5.31-2.71-8.88l6.12-2.18
			c-0.14,2.8,0.29,5.72,1.5,8.26c1.17,2.45,3.99,5.14,6.91,3.75c6.16-2.94-3.15-15.88,7.54-20.99c7.22-3.45,12.53,0.89,15.25,6.59
			c1.33,2.78,2.19,5.55,2.53,8.28L1118.37,205.55z"/>
		<path class="st2" d="M1129.67,217.1l2.23,6.82l-34.02,11.14l-2.23-6.82L1129.67,217.1z"/>
		<path class="st2" d="M1131.57,245.15l-1.92-10.08l5.54-1.05l5.17,27.21l-5.54,1.05l-1.92-10.08l-29.63,5.63l-1.34-7.05
			L1131.57,245.15z"/>
		<path class="st2" d="M1119.93,283.29l21.43-13.42l0.14,8.41l-14.89,8.7l15.16,8.37l0.12,7.59l-21.84-12.47l-14.15,0.23l-0.12-7.18
			L1119.93,283.29z"/>
	</g>
	<path class="st2" d="M922.7,426.07c31.66-18.58,61.07-33.23,83.84-61.8c11.99-15.04,20.25-31.74,20.28-51.54v-17.6H922.64"/>
	<path class="st2" d="M922.7,179.54c0,0-82.58,14.7-97.02,14.7c-5.02,4.11-7.21,14.46-7.15,21.03c0.3,33.86,0.71,46.02-0.05,79.86
		h104.16"/>
	<path class="st0" d="M922.64,295.13H818.48v10.11c-0.54,24.09,7.89,44.12,23,62.13c22.48,26.81,50.7,40.61,81.23,58.7"/>
	<path class="st0" d="M922.64,295.13h104.18c0.05-36.81-0.08-44.4,0.13-81.21c0.03-5.6-1.96-15.36-6.11-18.86
		c-15.79,0-98.14-15.53-98.14-15.53"/>
	<line class="st3" x1="818.48" y1="295.13" x2="1026.82" y2="295.13"/>
	<line class="st3" x1="922.64" y1="179.54" x2="922.64" y2="426.07"/>
	<g>
		<path class="st2" d="M898.97,353.44c1.08-0.51,1.77-1.58,1.82-2.77c0.07-1.66,0.07-4.36-0.37-7.7c-0.32-2.45-0.67-5.15-2.36-9.04
			c-2.08-4.77-4.61-7.17-4.68-7.56c-0.02-0.12,2.08,0.79,3.64,2.51c1.51,1.67,2.53,3.76,2.57,3.61c0.18-0.76-1.04-3.98-1.5-4.9
			c-2.01-3.98-5.91-7.6-11.68-10.13c-10.41-4.57-22.57-2.71-27.94,1.55c-0.57,0.45-0.1,1.28-0.66,1.74
			c-6.43,5.41-9.25,14.4-10.3,17.23c-1.06,2.85,8.29,14.56,26.55,17.45c2.7,0.43,5.75,0.2,8.42,0.02c0.29-0.02,0.4-7.01-1.45-14.5
			c-4.29-17.43-20.19-19.81-18.67-20.18c0.33-0.08,16.39-0.01,22.51,18.49c2.49,7.52,2.26,17.14,2.57,17.14
			c2.62,0,5.69-1.04,7.98-1.69C896.95,354.31,898.12,353.84,898.97,353.44z"/>
		<path class="st2" d="M837.3,340.09c0.2-1.04,0.61-2.02,1.29-2.86c2.01-2.49,4.36-2.58,7.29-2.58c-0.06,0.18-1.29,3.24-1.34,3.38
			c-0.53,1.4-0.19,3.13,1.01,5.14c3.59,6.02,13.93,13.49,28.12,15.7c1.19,0.19,2.6,0.28,4.29,0.28c2.03,0,4.09-0.13,5.6-0.23
			l-0.09-0.05c0.39,0.62,2.27,1.01,3.36,1.01c0.15,0,0.71-0.02,0.76-0.02c2.2-0.11,5.15-0.69,9-1.77c6.82-1.91,7.55-4.77,7.57-5.58
			c0.01-0.45,0.01-0.77-0.04-3.19c2.15,0.2,8.91,3.27,8.06,8.95c-0.87,5.74-12.39,9.24-16.8,10.05
			c-10.83,2.01-26.81-0.06-37.06-4.07c-4.63-1.81-9.02-4.46-12.87-7.6c-3.9-3.19-7.2-7.41-8.12-12.55
			C837.1,342.8,837.04,341.4,837.3,340.09z"/>
	</g>
	<path class="st2" d="M973.98,204.92l-0.06-17.52l-4.36-0.97l0.05,18.52l-16.46,10.86l1.18-0.23c11.55-2.26,23.43-2.25,34.97,0.02
		l1.09,0.21L973.98,204.92z"/>
	<path class="st2" d="M977.93,238.56l8.47-5.09c2.48-1.49,4-4.17,4-7.06v-6.45l-1.1-0.21c-11.54-2.23-23.41-2.19-34.93,0.09
		l-1.21,0.24l0.06,6.8c0.02,2.64,1.3,5.1,3.45,6.63c3.36,2.4,8.02,5.72,8.23,5.87l1.56,7.5c0.65,1.91,2.53,3.05,5.07,3.05
		c5.55,0,9.94,5.02,8.88,10.75c-0.67,3.6-3.55,6.49-7.15,7.17c-5.74,1.08-10.78-3.33-10.78-8.88c0-0.42-0.03-1.13,0.03-1.67
		c0.26-2.51-1.03-4.35-2.38-5.12c-0.97-0.56-1.85-0.88-3.01-0.88c-0.62,0-2.83,0.14-3.05,1.8c-0.08,0.56,1.49,0.43,1.63,2.25
		c0.06,0.78-0.48,3.24-0.61,4.82c-0.19,2.29,0.12,4.57,0.84,6.6c1.92,5.43,8.42,10.28,15.59,10.28c9.97,0,18.08-8.12,18.08-18.09
		c0-8.11-5.5-15.2-13.14-17.4l0.57-2.12C977.4,239.22,977.74,238.91,977.93,238.56z M971.71,227.5c-1.41,0-2.55-1.14-2.55-2.55
		c0-1.41,1.14-2.55,2.55-2.55c1.41,0,2.55,1.14,2.55,2.55C974.26,226.35,973.12,227.5,971.71,227.5z"/>
	<path class="st2" d="M922.7,430.26l-1.83-1.08c-4.65-2.75-9.3-5.44-13.79-8.03c-25.15-14.53-48.91-28.25-68.37-51.45
		c-16.58-19.77-24.37-40.88-23.84-64.54c0.65-28.56,0.45-49.02,0.19-74.92c-0.05-4.76-0.09-9.71-0.14-14.94
		c-0.06-6.75,2.15-18.67,8.47-23.85l1-0.82h1.29c13.96,0,95.57-14.49,96.39-14.64l0.65-0.12l0.65,0.12
		c0.82,0.16,82.19,15.46,97.47,15.46h1.32l1.01,0.85c5.45,4.59,7.43,15.71,7.4,21.64c-0.14,23.9-0.13,43.08-0.13,63.38
		c0,11.05,0.01,22.52-0.01,35.42c-0.03,18.44-6.92,36.04-21.06,53.78c-20.27,25.42-45.76,40.11-72.74,55.65
		c-3.99,2.3-8.02,4.62-12.09,7.01L922.7,430.26z M827.16,197.81c-3.18,3.55-5.07,11.5-5.02,17.43c0.05,5.23,0.09,10.17,0.14,14.93
		c0.25,25.96,0.46,46.47-0.19,75.15c-0.49,21.83,6.75,41.37,22.15,59.73c18.64,22.23,41.86,35.64,66.44,49.84
		c3.92,2.27,7.96,4.6,12.03,6.99c3.47-2.02,6.9-4,10.31-5.97c26.38-15.2,51.29-29.55,70.7-53.9c13.27-16.65,19.46-32.31,19.49-49.29
		c0.02-12.89,0.01-24.36,0.01-35.41c-0.01-20.31-0.02-39.5,0.12-63.42c0.03-5-1.69-12.22-4.07-15.26
		c-18.28-0.8-88.51-13.91-96.6-15.43C914.58,184.65,844.31,197.05,827.16,197.81z"/>
	<g>
		<path class="st6" d="M845.93,216.72h35.14c9.69,0,19.21,3.12,19.21,13.77c0,7.68-4.08,11.77-11.53,13.69v0.16
			c7.76,1.04,12.57,7.12,12.57,12.73c0,14.09-11.37,15.53-22.97,15.53h-32.42V216.72z M866.1,238.09h5.36
			c3.76,0,7.84-1.12,7.84-5.36c0-4.16-3.52-5.44-7.36-5.44h-5.84V238.09z M866.1,261.06h5.6c3.92,0,8.16-1.44,8.16-5.76
			c0-4.8-4-5.68-8-5.68h-5.76V261.06z"/>
	</g>
	<g>
		<path class="st6" d="M961.25,345.98c0.01,5.28,1.54,9.28,6.67,9.27c5.6-0.01,6.79-3.78,6.78-9.22l-0.08-33.22l20.97-0.05
			l0.08,32.82c0.05,18.09-11.07,24.04-27.95,24.09c-15.61,0.04-27.87-6.33-27.92-22.82l-0.09-33.94l21.45-0.05L961.25,345.98z"/>
	</g>
</g>
<g>
	<g>
		<path class="st2" d="M-177.81,865.96c3.51-2.5,1.49-5.96-0.59-8.89l-1.37-1.92l-7.86,5.59l1.37,1.92
			C-184.21,865.54-181.44,868.54-177.81,865.96z"/>
		<polygon class="st2" points="-557.69,936.18 -544.42,944.48 -542.12,934.27 -557.66,936.08 		"/>
		<path class="st2" d="M-539.79,893.53c-3.94-1.75-5.89,1.76-7.34,5.04l-0.96,2.16l8.81,3.91l0.96-2.16
			C-536.89,899.25-535.71,895.34-539.79,893.53z"/>
		<path class="st2" d="M-417.05,784.59c-1.46-4.05-5.35-3.03-8.72-1.82l-2.22,0.8l3.27,9.07l2.22-0.8
			C-419.17,790.64-415.54,788.79-417.05,784.59z"/>
		<polygon class="st2" points="-448.09,811.1 -460.14,801.11 -460.22,801.16 -457.05,816.49 		"/>
		<path class="st2" d="M-559.66,971.46c-4.15-0.12-4.56,3.52-4.65,6.8l-0.08,2.77l8.82,0.24l0.08-2.92
			C-555.41,975.33-555.97,971.57-559.66,971.46z"/>
		<g>
			<polygon class="st2" points="-475.3,1146.42 -467.7,1151.92 -463.69,1138.46 -463.76,1138.41 			"/>
			<path class="st2" d="M-277.12,1158.83l-3.29,1.44l8.81,20.14l3.29-1.44c4.93-2.16,8.09-7.91,5.29-14.31
				C-265.83,1158.26-272.19,1156.68-277.12,1158.83z"/>
			<path class="st2" d="M-435.88,1153.71l-2.23-1.09l-3.47,7.11l2.36,1.15c2.44,1.19,5.72,2.13,7.17-0.85
				C-430.42,1156.69-433.24,1155-435.88,1153.71z"/>
			<path class="st2" d="M-213.86,1114.36c-2.07,2.16-0.84,5.06,1.22,7.04c2.26,2.17,5.24,3.25,7.37,1.02
				c2.17-2.26,0.94-5.1-1.39-7.33C-208.85,1112.99-211.67,1112.07-213.86,1114.36z"/>
			<path class="st2" d="M-440.96,1165.36l-2.73-1.33l-4.08,8.35l2.73,1.33c2.69,1.31,6.28,2.25,7.91-1.1
				C-435.29,1168.85-438.07,1166.78-440.96,1165.36z"/>
			<path class="st2" d="M-178.95,1099.71c-2.55-1.82-5.65-2.45-7.44,0.06c-1.82,2.55-0.19,5.18,2.43,7.05
				c2.47,1.76,5.39,2.26,7.24-0.32C-174.98,1104.06-176.62,1101.37-178.95,1099.71z"/>
			<path class="st2" d="M-174.54,1067.83c-2.7-1.38-5.67-1.45-7.11,1.38c-1.36,2.66,0.65,5.09,3.19,6.39
				c2.79,1.42,5.95,1.6,7.36-1.15C-169.68,1071.66-171.67,1069.29-174.54,1067.83z"/>
			<path class="st2" d="M-350.94,747.99c-129.63,0-234.72,105.09-234.72,234.72s105.09,234.72,234.72,234.72
				s234.72-105.09,234.72-234.72S-221.31,747.99-350.94,747.99z M-132.04,972.23l-14.89,8.7l15.16,8.37l0.12,7.59l-21.84-12.47
				l-14.15,0.23l-0.12-7.18l14.15-0.23l21.43-13.42L-132.04,972.23z M-133.16,955.18l-5.54,1.05l-1.92-10.08l-29.63,5.63l-1.34-7.05
				l29.63-5.63l-1.92-10.08l5.54-1.05L-133.16,955.18z M-141.62,917.87l-34.02,11.14l-2.23-6.82l34.02-11.14L-141.62,917.87z
				 M-152.08,889.28c1.33,2.78,2.19,5.55,2.53,8.28l-5.61,1.94c-0.09-2.46-0.67-4.97-1.75-7.23c-1.06-2.22-3.4-4.63-6.92-2.95
				c-5.6,2.67,3.52,15.71-7.31,20.88c-7.08,3.38-12.44-0.94-15.55-7.46c-1.68-3.52-1.97-5.31-2.71-8.88l6.12-2.18
				c-0.14,2.8,0.29,5.72,1.5,8.26c1.17,2.45,3.99,5.14,6.91,3.75c6.16-2.94-3.15-15.88,7.54-20.99
				C-160.11,879.24-154.8,883.58-152.08,889.28z M-179.33,846.03l4.49,6.31c4.46,6.27,9.98,13.6,1.88,19.37
				c-3.43,2.44-7.9,2.16-11.05-1.21l-0.08,0.06c1,1.68,0.07,3.73-0.81,5.23l-8.08,12.79l-4.63-6.52l6.62-9.99
				c1.58-2.38,1.88-3.73,0.13-6.19l-1.34-1.88l-12.12,8.62l-4.16-5.85L-179.33,846.03z M-188.86,834.95l-3.97,4l-9.9-9.82
				l-6.21,6.26l9.07,8.99l-3.97,4l-9.07-8.99l-7.08,7.14l9.98,9.9l-3.97,4l-15.07-14.95l25.21-25.41L-188.86,834.95z
				 M-234.28,797.07l-8.36,28.35l0.08,0.06l23.4-18.01l5.87,4.04l-30.21,22.66l-7.27-5l10.14-36.46L-234.28,797.07z M-250.69,787.87
				l-15.87,32.08l-6.43-3.18l15.87-32.08L-250.69,787.87z M-298.39,769.5l8.4,2.68l4.86,29.65l0.1,0.03l8.13-25.5l6.55,2.09
				l-10.88,34.1l-8.35-2.66l-4.91-29.66l-0.1-0.03l-8.13,25.5l-6.55-2.09L-298.39,769.5z M-346.02,786.05l2.25-22.76l7.15,0.71
				l-2.03,20.57c-0.6,6.07,0.95,10.25,6.41,10.79c5.46,0.54,7.79-3.25,8.39-9.33l2.03-20.57l7.15,0.71l-2.25,22.76
				c-0.94,9.54-6.74,12.94-15.88,12.04S-346.96,795.59-346.02,786.05z M-376.17,764.66l1,5.55l-10.1,1.81l5.32,29.68l-7.07,1.27
				l-5.32-29.68l-10.1,1.81l-1-5.55L-376.17,764.66z M-429.38,778.08c7.24-2.61,15.79-5.96,19.16,3.4
				c1.43,3.96-0.04,8.19-4.13,10.32l0.03,0.1c1.89-0.52,3.61,0.93,4.82,2.19l10.15,11.22l-7.53,2.71l-7.85-9.06
				c-1.87-2.16-3.08-2.81-5.93-1.79l-2.17,0.78l5.04,13.99l-6.75,2.44l-12.14-33.68L-429.38,778.08z M-460.28,792.82l30.49,23.43
				l-6.81,4.1l-6.87-5.45l-12.44,7.48l1.55,8.64l-6.37,3.83l-6.49-37.86L-460.28,792.82z M-505.48,827.3l9.86,10.58l10.51-9.79
				l-9.86-10.58l5.25-4.89l24.4,26.19l-5.25,4.89l-10.7-11.48l-10.51,9.79l10.7,11.48l-5.25,4.89l-24.4-26.19L-505.48,827.3z
				 M-533.66,861.71l29.75,4.23l0.06-0.08l-21.9-15.39l3.95-5.62l29.29,20.58l-5.04,7.18l-29.77-4.19l-0.06,0.08l21.9,15.39
				l-3.95,5.62l-29.29-20.58L-533.66,861.71z M-553.02,897.92c3.12-7.03,6.61-15.53,15.7-11.49c3.84,1.71,5.89,5.7,4.6,10.12
				l0.09,0.04c0.93-1.72,3.17-1.96,4.91-1.97l15.13,0.43l-3.24,7.31l-11.97-0.6c-2.85-0.14-4.17,0.28-5.39,3.05l-0.94,2.11
				l13.59,6.03l-2.91,6.56L-556.16,905L-553.02,897.92z M-563.76,930.45l38.01-5.84l-1.75,7.75l-8.68,1.2l-3.19,14.16l7.32,4.86
				l-1.63,7.25l-31.86-21.48L-563.76,930.45z M-569.88,975.54c0.13-4.61,1.65-11.5,9.5-11.28c4.25,0.12,7.15,3.07,7.8,7.35l0.1,0
				c0.6-4.86,3.97-8.1,8.38-7.98c9.02,0.25,10.13,8.39,10.01,12.9l-0.35,12.51l-35.79-0.99L-569.88,975.54z M-551.73,1030.35
				c0-2.83,2.29-5.12,5.12-5.12c2.83,0,5.12,2.29,5.12,5.12c0,2.83-2.29,5.12-5.12,5.12
				C-549.44,1035.47-551.73,1033.18-551.73,1030.35z M-532.47,1094.4l-4.43,2.45l-9.22-16.66l28.09-15.55l9.18,16.58l-4.43,2.45
				l-6.06-10.94l-6.92,3.83l5.55,10.02l-4.43,2.45l-5.55-10.02l-7.89,4.37L-532.47,1094.4z M-510.53,1117.76
				c-5.59,4.27-11.09,1.46-15.03-3.69c-2.12-2.78-2.7-4.3-4.01-7.3l4.97-3.04c0.39,2.48,1.3,4.97,2.84,6.98
				c1.48,1.94,4.45,3.78,6.75,2.02c4.86-3.71-5.69-13.36,2.76-19.81c5.7-4.35,11.16-1.52,14.6,2.98c1.67,2.19,2.95,4.46,3.75,6.8
				l-4.57,2.73c-0.53-2.14-1.5-4.24-2.87-6.03c-1.34-1.75-3.84-3.43-6.62-1.31C-512.37,1101.46-501.97,1111.23-510.53,1117.76z
				 M-505.46,1136.43l18.9-19.35l-6.58-6.43l3.54-3.62l17.77,17.35l-3.54,3.62l-6.58-6.43l-18.9,19.35L-505.46,1136.43z
				 M-465.51,1168.83l-5.78-4.18l2.08-7.58l-10.54-7.63l-6.59,4.32l-5.4-3.91l28.97-18.67l5.89,4.26L-465.51,1168.83z
				 M-425.91,1162.12c-1.68,3.43-5.16,4.7-8.9,3.64l-0.04,0.08c3.75,2.29,5.14,6.25,3.4,9.8c-3.56,7.28-10.61,5.16-14.25,3.38
				l-10.09-4.93l14.1-28.85l10.09,4.93C-427.87,1151.99-422.82,1155.79-425.91,1162.12z M-406.29,1193.84l-18.02-5.71l9.7-30.61
				l6.14,1.95l-8.17,25.79l11.88,3.77L-406.29,1193.84z M-391,1197l-6.31-1.27l6.34-31.47l6.31,1.27L-391,1197z M-358.12,1191.64
				c-0.59,7.01-6.36,9.2-12.83,8.66c-3.48-0.29-5-0.88-8.1-1.93l1.08-5.73c2.1,1.38,4.55,2.37,7.08,2.58
				c2.43,0.21,5.79-0.76,6.03-3.65c0.52-6.1-13.72-4.76-12.83-15.35c0.6-7.15,6.37-9.29,12.01-8.82c2.75,0.23,5.29,0.82,7.56,1.79
				l-1.04,5.22c-1.94-1.04-4.15-1.74-6.39-1.92c-2.2-0.19-5.12,0.54-5.42,4.02C-371.43,1182.07-357.21,1180.92-358.12,1191.64z
				 M-516.09,982.71c0-91.21,73.94-165.15,165.15-165.15c91.21,0,165.15,73.94,165.15,165.15s-73.94,165.15-165.15,165.15
				C-442.15,1147.85-516.09,1073.91-516.09,982.71z M-327.06,1199.45l-1.11-14.03l-12.84,1.02l1.11,14.03l-6.42,0.51l-2.53-32.01
				l6.42-0.51l1.02,12.93l12.84-1.02l-1.02-12.93l6.42-0.51l2.54,32L-327.06,1199.45z M-306.66,1196.34l-7.8-31.14l18.38-4.6
				l1.23,4.91l-12.14,3.04l1.92,7.67l11.11-2.78l1.23,4.91l-11.11,2.78l2.19,8.75l12.22-3.06l1.23,4.91L-306.66,1196.34z
				 M-267.42,1184.11l-8.05,3.52l-12.87-29.42l8.05-3.52c9.02-3.94,18.31-4.39,23.42,7.28
				C-251.77,1173.65-258.4,1180.17-267.42,1184.11z M-217.79,1155.25l-15.21-19.58l-1.58,6.82l-5.11-1.33l2.79-11.71l4.5-3.5
				l19.69,25.36L-217.79,1155.25z M-194.95,1135.71c-1.62,1.69-3.42,3.03-5.51,4.08l-3.18-4.2c1.71-0.72,3.32-1.6,4.82-3.16
				c3.86-4.02,1.44-8.94-1.88-12.39l-0.13,0c0.58,2.66-0.1,4.75-1.98,6.71c-4.21,4.38-9.29,4.09-13.57-0.02
				c-5.01-4.81-5.97-10.45-0.94-15.7c6.18-6.44,12.89-2.74,18.34,2.49C-192.71,1119.56-187.75,1128.21-194.95,1135.71z
				 M-172.82,1109.28c-5.18,7.27-12.36,4.58-18.5,0.2c-7.08-5.05-13.24-12.89-7.21-21.35c1.36-1.91,2.94-3.5,4.86-4.84l3.75,3.69
				c-1.59,0.96-3.05,2.06-4.31,3.82c-3.23,4.53-0.13,9.06,3.66,11.99l0.13-0.02c-0.92-2.52-0.59-4.72,0.98-6.93
				c3.52-4.95,8.59-5.4,13.43-1.96C-170.37,1097.91-168.6,1103.36-172.82,1109.28z M-157.39,1084.2c-1.07,2.09-2.4,3.89-4.1,5.5
				l-4.25-3.1c1.43-1.18,2.72-2.49,3.7-4.41c2.54-4.96-1.19-8.98-5.37-11.32l-0.12,0.04c1.32,2.38,1.27,4.58,0.04,7
				c-2.77,5.41-7.71,6.59-13,3.89c-6.18-3.16-8.73-8.29-5.42-14.76c4.06-7.95,11.56-6.33,18.28-2.9
				C-159.89,1068.08-152.65,1074.94-157.39,1084.2z M-154.82,1035.47c-2.83,0-5.12-2.29-5.12-5.12c0-2.83,2.29-5.12,5.12-5.12
				c2.83,0,5.12,2.29,5.12,5.12C-149.71,1033.18-152,1035.47-154.82,1035.47z"/>
		</g>
		<path class="st2" d="M-544.56,970.8c-4.67-0.13-5.49,3.64-5.59,7.23l-0.09,3.38l10.36,0.29l0.09-3.38
			C-539.7,974.99-540.41,970.92-544.56,970.8z"/>
	</g>
	<line class="st3" x1="-455.05" y1="989.08" x2="-246.71" y2="989.08"/>
	<line class="st3" x1="-350.89" y1="873.5" x2="-350.89" y2="1120.02"/>
	<path class="st2" d="M-350.89,989.08h-104.16v10.11c-0.54,24.09,7.89,44.12,23,62.13c22.48,26.81,50.7,40.61,81.23,58.7
		L-350.89,989.08z M-426.01,1031.96c1.05-2.83,3.87-11.83,10.3-17.23c0.55-0.47,0.08-1.29,0.66-1.74
		c5.37-4.26,17.52-6.12,27.94-1.55c5.77,2.53,9.67,6.16,11.68,10.13c0.46,0.92,1.69,4.14,1.5,4.9c-0.04,0.15-1.06-1.95-2.57-3.61
		c-1.56-1.72-3.66-2.63-3.64-2.51c0.07,0.39,2.6,2.79,4.68,7.56c1.69,3.88,2.04,6.58,2.36,9.04c0.44,3.34,0.44,6.04,0.37,7.7
		c-0.05,1.19-0.74,2.26-1.82,2.77c-0.85,0.4-2.03,0.87-3.55,1.31c-2.29,0.65-5.36,1.69-7.98,1.69c-0.31,0-0.08-9.62-2.57-17.14
		c-6.12-18.5-22.18-18.57-22.51-18.49c-1.52,0.36,14.38,2.75,18.67,20.18c1.85,7.49,1.74,14.48,1.45,14.5
		c-2.67,0.17-5.72,0.41-8.42-0.02C-417.72,1046.52-427.07,1034.81-426.01,1031.96z M-361.36,1052.21
		c-0.87,5.74-12.39,9.24-16.8,10.05c-10.83,2.01-26.81-0.06-37.06-4.07c-4.63-1.81-9.02-4.46-12.87-7.6
		c-3.9-3.19-7.2-7.41-8.12-12.55c-0.23-1.29-0.29-2.69-0.03-4c0.2-1.04,0.61-2.02,1.29-2.86c2.01-2.49,4.36-2.58,7.29-2.58
		c-0.06,0.18-1.29,3.24-1.34,3.38c-0.53,1.4-0.19,3.13,1.01,5.14c3.59,6.02,13.93,13.49,28.12,15.7c1.19,0.19,2.6,0.28,4.29,0.28
		c2.01,0,4.05-0.13,5.56-0.22c-0.01-0.02-0.04-0.04-0.05-0.05l0.09,0.05c-0.01,0-0.03,0-0.04,0c0.46,0.59,2.26,0.96,3.31,0.96
		c0.15,0,0.71-0.02,0.76-0.02c2.2-0.11,5.15-0.69,9-1.77c6.82-1.91,7.55-4.77,7.57-5.58c0.01-0.45,0.01-0.77-0.04-3.19
		C-367.26,1043.46-360.5,1046.53-361.36,1052.21z"/>
	<g>
		<path class="st2" d="M-246.57,907.88c0.03-5.6-1.96-15.36-6.11-18.86c-6.96,0-26.85-3.02-46.92-6.39l0.05,16.24l16.42,10.89
			l-1.09-0.21c-11.55-2.27-23.42-2.27-34.97-0.02l-1.18,0.23l16.46-10.86l-0.05-17c-23.96-4.08-46.86-8.4-46.86-8.4l-0.07,115.59
			h104.18C-246.66,952.28-246.79,944.69-246.57,907.88z M-283.13,920.37c0,2.89-1.52,5.57-4,7.06l-8.47,5.09
			c-0.2,0.34-0.53,0.66-0.91,0.9l-0.57,2.12c7.64,2.19,13.14,9.28,13.14,17.4c0,9.97-8.12,18.09-18.08,18.09
			c-7.18,0-13.67-4.86-15.59-10.28c-0.72-2.03-1.02-4.31-0.84-6.6c0.12-1.58,0.66-4.04,0.61-4.82c-0.14-1.82-1.71-1.69-1.63-2.25
			c0.22-1.66,2.43-1.8,3.05-1.8c1.16,0,2.04,0.32,3.01,0.88c1.35,0.77,2.64,2.61,2.38,5.12c-0.06,0.54-0.03,1.25-0.03,1.67
			c0,5.55,5.04,9.96,10.78,8.88c3.6-0.68,6.48-3.57,7.15-7.17c1.06-5.72-3.34-10.75-8.88-10.75c-2.53,0-4.42-1.14-5.07-3.05
			l-1.56-7.5c-0.21-0.15-4.87-3.47-8.23-5.87c-2.15-1.53-3.43-4-3.45-6.63l-0.06-6.8l1.21-0.24c11.53-2.29,23.39-2.32,34.93-0.09
			l1.1,0.21V920.37z"/>
		<path class="st2" d="M-301.82,916.34c-1.41,0-2.55,1.14-2.55,2.55c0,1.41,1.14,2.55,2.55,2.55c1.41,0,2.55-1.14,2.55-2.55
			C-299.27,917.48-300.41,916.34-301.82,916.34z"/>
	</g>
	<path class="st2" d="M-350.83,1124.21l-1.83-1.08c-4.65-2.75-9.3-5.44-13.79-8.03c-25.15-14.53-48.91-28.25-68.37-51.45
		c-16.58-19.77-24.37-40.88-23.84-64.54c0.65-28.56,0.45-49.02,0.19-74.92c-0.05-4.76-0.09-9.71-0.14-14.94
		c-0.06-6.75,2.15-18.67,8.47-23.85l1-0.82h1.29c13.96,0,95.57-14.49,96.39-14.64l0.65-0.12l0.65,0.12
		c0.82,0.16,82.19,15.46,97.47,15.46h1.32l1.01,0.85c5.45,4.59,7.43,15.71,7.4,21.64c-0.14,23.9-0.13,43.08-0.13,63.38
		c0,11.05,0.01,22.52-0.01,35.42c-0.03,18.44-6.92,36.04-21.06,53.78c-20.27,25.42-45.76,40.11-72.74,55.65
		c-3.99,2.3-8.02,4.62-12.09,7.01L-350.83,1124.21z M-446.37,891.76c-3.18,3.55-5.07,11.5-5.02,17.43
		c0.05,5.23,0.09,10.17,0.14,14.93c0.25,25.96,0.46,46.47-0.19,75.15c-0.49,21.83,6.75,41.37,22.15,59.73
		c18.64,22.23,41.86,35.64,66.44,49.84c3.92,2.27,7.96,4.6,12.03,6.99c3.47-2.02,6.9-4,10.31-5.97c26.38-15.2,51.29-29.55,70.7-53.9
		c13.27-16.65,19.46-32.31,19.49-49.29c0.02-12.89,0.01-24.36,0.01-35.41c-0.01-20.31-0.02-39.5,0.12-63.42
		c0.03-5-1.69-12.22-4.07-15.26c-18.28-0.8-88.51-13.91-96.6-15.43C-358.95,878.6-429.22,891-446.37,891.76z"/>
	<g>
		<path class="st2" d="M-427.6,910.67h35.14c9.69,0,19.21,3.12,19.21,13.77c0,7.68-4.08,11.77-11.53,13.69v0.16
			c7.76,1.04,12.57,7.12,12.57,12.73c0,14.09-11.37,15.53-22.97,15.53h-32.42V910.67z M-407.43,932.04h5.36
			c3.76,0,7.84-1.12,7.84-5.36c0-4.16-3.52-5.44-7.36-5.44h-5.84V932.04z M-407.43,955.01h5.6c3.92,0,8.16-1.44,8.16-5.76
			c0-4.8-4-5.68-8-5.68h-5.76V955.01z"/>
	</g>
	<g>
		<path class="st2" d="M-312.28,1039.93c0.01,5.28,1.54,9.28,6.67,9.27c5.6-0.01,6.79-3.78,6.78-9.22l-0.08-33.22l20.97-0.05
			l0.08,32.82c0.05,18.09-11.07,24.04-27.95,24.09c-15.61,0.04-27.87-6.33-27.92-22.82l-0.09-33.94l21.45-0.05L-312.28,1039.93z"/>
	</g>
</g>
<g>
	<g>
		<path class="st2" d="M473.13,183.25c3.51-2.5,1.49-5.96-0.59-8.89l-1.37-1.92l-7.86,5.59l1.37,1.92
			C466.73,182.83,469.5,185.84,473.13,183.25z"/>
		<polygon class="st2" points="93.25,253.47 106.53,261.77 108.83,251.57 93.28,253.37 		"/>
		<path class="st2" d="M111.15,210.82c-3.94-1.75-5.89,1.76-7.34,5.04l-0.96,2.16l8.81,3.91l0.96-2.16
			C114.05,216.54,115.23,212.63,111.15,210.82z"/>
		<path class="st2" d="M233.89,101.88c-1.46-4.05-5.35-3.03-8.72-1.82l-2.22,0.8l3.27,9.07l2.22-0.8
			C231.77,107.94,235.41,106.08,233.89,101.88z"/>
		<polygon class="st2" points="202.86,128.39 190.81,118.4 190.72,118.46 193.89,133.78 		"/>
		<path class="st2" d="M91.28,288.76c-4.15-0.12-4.56,3.52-4.65,6.8l-0.08,2.77l8.82,0.24l0.08-2.92
			C95.53,292.62,94.97,288.86,91.28,288.76z"/>
		<g>
			<polygon class="st2" points="175.65,463.71 183.25,469.21 187.25,455.76 187.18,455.7 			"/>
			<path class="st2" d="M373.82,476.13l-3.29,1.44l8.81,20.14l3.29-1.44c4.93-2.16,8.09-7.91,5.29-14.31
				C385.11,475.55,378.75,473.97,373.82,476.13z"/>
			<path class="st2" d="M215.06,471l-2.23-1.09l-3.47,7.11l2.36,1.15c2.44,1.19,5.72,2.13,7.17-0.85
				C220.52,473.98,217.7,472.3,215.06,471z"/>
			<path class="st2" d="M437.08,431.65c-2.07,2.16-0.84,5.06,1.22,7.04c2.26,2.17,5.24,3.25,7.37,1.02c2.17-2.26,0.94-5.1-1.39-7.33
				C442.09,430.28,439.28,429.36,437.08,431.65z"/>
			<path class="st2" d="M209.98,482.66l-2.73-1.33l-4.08,8.35l2.73,1.33c2.69,1.31,6.28,2.25,7.91-1.1
				C215.65,486.14,212.87,484.07,209.98,482.66z"/>
			<path class="st2" d="M472,417.01c-2.55-1.82-5.65-2.45-7.44,0.06c-1.82,2.55-0.19,5.18,2.43,7.05c2.47,1.76,5.39,2.26,7.24-0.32
				C475.96,421.36,474.32,418.66,472,417.01z"/>
			<path class="st2" d="M476.4,385.12c-2.7-1.38-5.67-1.45-7.11,1.38c-1.36,2.66,0.65,5.09,3.19,6.39c2.79,1.42,5.95,1.6,7.36-1.15
				C481.26,388.95,479.27,386.59,476.4,385.12z"/>
			<path class="st2" d="M300,65.28C170.37,65.28,65.28,170.37,65.28,300S170.37,534.72,300,534.72S534.72,429.63,534.72,300
				S429.63,65.28,300,65.28z M518.9,289.52l-14.89,8.7l15.16,8.37l0.12,7.59l-21.84-12.47l-14.15,0.23l-0.12-7.18l14.15-0.23
				l21.43-13.42L518.9,289.52z M517.78,272.47l-5.54,1.05l-1.92-10.08l-29.63,5.63l-1.34-7.05l29.63-5.63l-1.92-10.08l5.54-1.05
				L517.78,272.47z M509.32,235.16L475.3,246.3l-2.23-6.82l34.02-11.14L509.32,235.16z M498.86,206.57
				c1.33,2.78,2.19,5.55,2.53,8.28l-5.61,1.94c-0.09-2.46-0.67-4.97-1.75-7.23c-1.06-2.22-3.4-4.63-6.92-2.95
				c-5.6,2.67,3.52,15.71-7.31,20.88c-7.08,3.38-12.44-0.94-15.55-7.46c-1.68-3.52-1.97-5.31-2.71-8.88l6.12-2.18
				c-0.14,2.8,0.29,5.72,1.5,8.26c1.17,2.45,3.99,5.14,6.91,3.75c6.16-2.94-3.15-15.88,7.54-20.99
				C490.83,196.54,496.14,200.88,498.86,206.57z M471.61,163.32l4.49,6.31c4.46,6.27,9.98,13.6,1.88,19.37
				c-3.43,2.44-7.9,2.16-11.05-1.21l-0.08,0.06c1,1.68,0.07,3.73-0.81,5.23l-8.08,12.79l-4.63-6.52l6.62-9.99
				c1.58-2.38,1.88-3.73,0.13-6.19l-1.34-1.88l-12.12,8.62l-4.16-5.85L471.61,163.32z M462.08,152.24l-3.97,4l-9.9-9.82l-6.21,6.26
				l9.07,8.99l-3.97,4l-9.07-8.99l-7.08,7.14l9.98,9.9l-3.97,4l-15.07-14.95l25.21-25.41L462.08,152.24z M416.66,114.36l-8.36,28.35
				l0.08,0.06l23.4-18.01l5.87,4.04l-30.21,22.66l-7.27-5L410.32,110L416.66,114.36z M400.25,105.16l-15.87,32.08l-6.43-3.18
				l15.87-32.08L400.25,105.16z M352.55,86.79l8.4,2.68l4.86,29.65l0.1,0.03l8.13-25.5l6.55,2.09l-10.88,34.1l-8.35-2.66
				l-4.91-29.66l-0.1-0.03l-8.13,25.5l-6.55-2.09L352.55,86.79z M304.92,103.34l2.25-22.76l7.15,0.71l-2.03,20.57
				c-0.6,6.07,0.95,10.25,6.41,10.79c5.46,0.54,7.79-3.25,8.39-9.33l2.03-20.57l7.15,0.71l-2.25,22.76
				c-0.94,9.54-6.74,12.94-15.88,12.04S303.98,112.89,304.92,103.34z M274.77,81.95l1,5.55l-10.1,1.81l5.32,29.68l-7.07,1.27
				l-5.32-29.68l-10.1,1.81l-1-5.55L274.77,81.95z M221.57,95.37c7.24-2.61,15.79-5.96,19.16,3.4c1.43,3.96-0.04,8.19-4.13,10.32
				l0.03,0.1c1.89-0.52,3.61,0.93,4.82,2.19l10.15,11.22l-7.53,2.71l-7.85-9.06c-1.87-2.16-3.08-2.81-5.93-1.79l-2.17,0.78
				l5.04,13.99l-6.75,2.44L214.28,98L221.57,95.37z M190.66,110.11l30.49,23.43l-6.81,4.1l-6.87-5.45l-12.44,7.48l1.55,8.64
				l-6.37,3.83l-6.49-37.86L190.66,110.11z M145.46,144.59l9.86,10.58l10.51-9.79l-9.86-10.58l5.25-4.89l24.4,26.19l-5.25,4.89
				l-10.7-11.48l-10.51,9.79l10.7,11.48l-5.25,4.89l-24.4-26.19L145.46,144.59z M117.28,179.01l29.75,4.23l0.06-0.08l-21.9-15.39
				l3.95-5.62l29.29,20.58l-5.04,7.18l-29.77-4.19l-0.06,0.08l21.9,15.39l-3.95,5.62l-29.29-20.58L117.28,179.01z M97.92,215.22
				c3.12-7.03,6.61-15.53,15.7-11.49c3.84,1.71,5.89,5.7,4.6,10.12l0.09,0.04c0.93-1.72,3.17-1.96,4.91-1.97l15.13,0.43l-3.24,7.31
				l-11.97-0.6c-2.85-0.14-4.17,0.28-5.39,3.05l-0.94,2.11l13.59,6.03l-2.91,6.56L94.78,222.3L97.92,215.22z M87.19,247.74
				l38.01-5.84l-1.75,7.75l-8.68,1.2l-3.19,14.16l7.32,4.86l-1.63,7.25L85.4,255.64L87.19,247.74z M81.06,292.84
				c0.13-4.61,1.65-11.5,9.5-11.28c4.25,0.12,7.15,3.07,7.8,7.35l0.1,0c0.6-4.86,3.97-8.1,8.38-7.98
				c9.02,0.25,10.13,8.39,10.01,12.9l-0.35,12.51l-35.79-0.99L81.06,292.84z M99.21,347.65c0-2.83,2.29-5.12,5.12-5.12
				c2.83,0,5.12,2.29,5.12,5.12s-2.29,5.12-5.12,5.12C101.51,352.76,99.21,350.47,99.21,347.65z M118.47,411.7l-4.43,2.45
				l-9.22-16.66l28.09-15.55l9.18,16.58l-4.43,2.45l-6.06-10.94l-6.92,3.83l5.55,10.02l-4.43,2.45l-5.55-10.02l-7.89,4.37
				L118.47,411.7z M140.42,435.05c-5.59,4.27-11.09,1.46-15.03-3.69c-2.12-2.78-2.7-4.3-4.01-7.3l4.97-3.04
				c0.39,2.48,1.3,4.97,2.84,6.98c1.48,1.94,4.45,3.78,6.75,2.02c4.86-3.71-5.69-13.36,2.76-19.81c5.7-4.35,11.16-1.52,14.6,2.98
				c1.67,2.19,2.95,4.46,3.75,6.8l-4.57,2.73c-0.53-2.14-1.5-4.24-2.87-6.03c-1.34-1.75-3.84-3.43-6.62-1.31
				C138.57,418.76,148.97,428.52,140.42,435.05z M145.48,453.72l18.9-19.35l-6.58-6.43l3.54-3.62l17.77,17.35l-3.54,3.62l-6.58-6.43
				l-18.9,19.35L145.48,453.72z M185.43,486.13l-5.78-4.18l2.08-7.58l-10.54-7.63l-6.59,4.32l-5.4-3.91l28.97-18.67l5.89,4.26
				L185.43,486.13z M225.03,479.41c-1.68,3.43-5.16,4.7-8.9,3.64l-0.04,0.08c3.75,2.29,5.14,6.25,3.4,9.8
				c-3.56,7.28-10.61,5.16-14.25,3.38l-10.09-4.93l14.1-28.85l10.09,4.93C223.07,469.29,228.12,473.09,225.03,479.41z
				 M244.65,511.14l-18.02-5.71l9.7-30.61l6.14,1.95l-8.17,25.79l11.88,3.77L244.65,511.14z M259.94,514.29l-6.31-1.27l6.34-31.47
				l6.31,1.27L259.94,514.29z M292.83,508.94c-0.59,7.01-6.36,9.2-12.83,8.66c-3.48-0.29-5-0.88-8.1-1.93l1.08-5.73
				c2.1,1.38,4.55,2.37,7.08,2.58c2.43,0.21,5.79-0.76,6.03-3.65c0.52-6.1-13.72-4.76-12.83-15.35c0.6-7.15,6.37-9.29,12.01-8.82
				c2.75,0.23,5.29,0.82,7.56,1.79l-1.04,5.22c-1.94-1.04-4.15-1.74-6.39-1.92c-2.2-0.19-5.12,0.54-5.42,4.02
				C279.51,499.36,293.73,498.21,292.83,508.94z M134.85,300c0-91.21,73.94-165.15,165.15-165.15
				c91.21,0,165.15,73.94,165.15,165.15S391.21,465.15,300,465.15C208.79,465.15,134.85,391.21,134.85,300z M323.88,516.74
				l-1.11-14.03l-12.84,1.02l1.11,14.03l-6.42,0.51l-2.53-32.01l6.42-0.51l1.02,12.93l12.84-1.02l-1.02-12.93l6.42-0.51l2.54,32
				L323.88,516.74z M344.29,513.63l-7.8-31.14l18.38-4.6l1.23,4.91l-12.14,3.04l1.92,7.67l11.11-2.78l1.23,4.91l-11.11,2.78
				l2.19,8.75l12.22-3.06l1.23,4.91L344.29,513.63z M383.52,501.41l-8.05,3.52l-12.87-29.42l8.05-3.52
				c9.02-3.94,18.31-4.39,23.42,7.28S392.54,497.46,383.52,501.41z M433.15,472.55l-15.21-19.58l-1.58,6.82l-5.11-1.33l2.79-11.71
				l4.5-3.5l19.69,25.36L433.15,472.55z M455.99,453c-1.62,1.69-3.42,3.03-5.51,4.08l-3.18-4.2c1.71-0.72,3.32-1.6,4.82-3.16
				c3.86-4.02,1.44-8.94-1.88-12.39l-0.13,0c0.58,2.66-0.1,4.75-1.98,6.71c-4.21,4.38-9.29,4.09-13.57-0.02
				c-5.01-4.81-5.97-10.45-0.94-15.7c6.18-6.44,12.89-2.74,18.34,2.49C458.24,436.85,463.19,445.5,455.99,453z M478.12,426.57
				c-5.18,7.27-12.36,4.58-18.5,0.2c-7.08-5.05-13.24-12.89-7.21-21.35c1.36-1.91,2.94-3.5,4.86-4.84l3.75,3.69
				c-1.59,0.96-3.05,2.06-4.31,3.82c-3.23,4.53-0.13,9.06,3.66,11.99l0.13-0.02c-0.92-2.52-0.59-4.72,0.98-6.93
				c3.52-4.95,8.59-5.4,13.43-1.96C480.57,415.21,482.34,420.65,478.12,426.57z M493.56,401.49c-1.07,2.09-2.4,3.89-4.1,5.5
				l-4.25-3.1c1.43-1.18,2.72-2.49,3.7-4.41c2.54-4.96-1.19-8.98-5.37-11.32l-0.12,0.04c1.32,2.38,1.27,4.58,0.04,7
				c-2.77,5.41-7.71,6.59-13,3.89c-6.18-3.16-8.73-8.29-5.42-14.76c4.06-7.95,11.56-6.33,18.28-2.9
				C491.05,385.38,498.29,392.23,493.56,401.49z M496.12,352.76c-2.83,0-5.12-2.29-5.12-5.12s2.29-5.12,5.12-5.12
				c2.83,0,5.12,2.29,5.12,5.12S498.94,352.76,496.12,352.76z"/>
		</g>
		<path class="st2" d="M106.38,288.1c-4.67-0.13-5.49,3.64-5.59,7.23l-0.09,3.38l10.36,0.29l0.09-3.38
			C111.24,292.29,110.53,288.21,106.38,288.1z"/>
	</g>
	<line class="st3" x1="195.89" y1="306.38" x2="404.23" y2="306.38"/>
	<line class="st3" x1="300.05" y1="190.79" x2="300.05" y2="437.32"/>
	<path class="st2" d="M300.05,306.38H195.89v10.11c-0.54,24.09,7.89,44.12,23,62.13c22.48,26.81,50.7,40.61,81.23,58.7
		L300.05,306.38z M224.93,349.25c1.05-2.83,3.87-11.83,10.3-17.23c0.55-0.47,0.08-1.29,0.66-1.74c5.37-4.26,17.52-6.12,27.94-1.55
		c5.77,2.53,9.67,6.16,11.68,10.13c0.46,0.92,1.69,4.14,1.5,4.9c-0.04,0.15-1.06-1.95-2.57-3.61c-1.56-1.72-3.66-2.63-3.64-2.51
		c0.07,0.39,2.6,2.79,4.68,7.56c1.69,3.88,2.04,6.58,2.36,9.04c0.44,3.34,0.44,6.04,0.37,7.7c-0.05,1.19-0.74,2.26-1.82,2.77
		c-0.85,0.4-2.03,0.87-3.55,1.31c-2.29,0.65-5.36,1.69-7.98,1.69c-0.31,0-0.08-9.62-2.57-17.14c-6.12-18.5-22.18-18.57-22.51-18.49
		c-1.52,0.36,14.38,2.75,18.67,20.18c1.85,7.49,1.74,14.48,1.45,14.5c-2.67,0.17-5.72,0.41-8.42-0.02
		C233.22,363.81,223.87,352.11,224.93,349.25z M289.59,369.51c-0.87,5.74-12.39,9.24-16.8,10.05c-10.83,2.01-26.81-0.06-37.06-4.07
		c-4.63-1.81-9.02-4.46-12.87-7.6c-3.9-3.19-7.2-7.41-8.12-12.55c-0.23-1.29-0.29-2.69-0.03-4c0.2-1.04,0.61-2.02,1.29-2.86
		c2.01-2.49,4.36-2.58,7.29-2.58c-0.06,0.18-1.29,3.24-1.34,3.38c-0.53,1.4-0.19,3.13,1.01,5.14c3.59,6.02,13.93,13.49,28.12,15.7
		c1.19,0.19,2.6,0.28,4.29,0.28c2.01,0,4.05-0.13,5.56-0.22c-0.01-0.02-0.04-0.04-0.05-0.05l0.09,0.05c-0.01,0-0.03,0-0.04,0
		c0.46,0.59,2.26,0.96,3.31,0.96c0.15,0,0.71-0.02,0.76-0.02c2.2-0.11,5.15-0.69,9-1.77c6.82-1.91,7.55-4.77,7.57-5.58
		c0.01-0.45,0.01-0.77-0.04-3.19C283.68,360.76,290.44,363.82,289.59,369.51z"/>
	<g>
		<path class="st2" d="M404.37,225.17c0.03-5.6-1.96-15.36-6.11-18.86c-6.96,0-26.85-3.02-46.92-6.39l0.05,16.24l16.42,10.89
			l-1.09-0.21c-11.55-2.27-23.42-2.27-34.97-0.02l-1.18,0.23l16.46-10.86l-0.05-17c-23.96-4.08-46.86-8.4-46.86-8.4l-0.07,115.59
			h104.18C404.28,269.57,404.15,261.98,404.37,225.17z M367.81,237.66c0,2.89-1.52,5.57-4,7.06l-8.47,5.09
			c-0.2,0.34-0.53,0.66-0.91,0.9l-0.57,2.12c7.64,2.19,13.14,9.28,13.14,17.4c0,9.97-8.12,18.09-18.08,18.09
			c-7.18,0-13.67-4.86-15.59-10.28c-0.72-2.03-1.02-4.31-0.84-6.6c0.12-1.58,0.66-4.04,0.61-4.82c-0.14-1.82-1.71-1.69-1.63-2.25
			c0.22-1.66,2.43-1.8,3.05-1.8c1.16,0,2.04,0.32,3.01,0.88c1.35,0.77,2.64,2.61,2.38,5.12c-0.06,0.54-0.03,1.25-0.03,1.67
			c0,5.55,5.04,9.96,10.78,8.88c3.6-0.68,6.48-3.57,7.15-7.17c1.06-5.72-3.34-10.75-8.88-10.75c-2.53,0-4.42-1.14-5.07-3.05
			l-1.56-7.5c-0.21-0.15-4.87-3.47-8.23-5.87c-2.15-1.53-3.43-4-3.45-6.63l-0.06-6.8l1.21-0.24c11.53-2.29,23.39-2.32,34.93-0.09
			l1.1,0.21V237.66z"/>
		<path class="st2" d="M349.12,233.63c-1.41,0-2.55,1.14-2.55,2.55c0,1.41,1.14,2.55,2.55,2.55c1.41,0,2.55-1.14,2.55-2.55
			C351.67,234.78,350.53,233.63,349.12,233.63z"/>
	</g>
	<path class="st2" d="M300.11,441.51l-1.83-1.08c-4.65-2.75-9.3-5.44-13.79-8.03c-25.15-14.53-48.91-28.25-68.37-51.45
		c-16.58-19.77-24.37-40.88-23.84-64.54c0.65-28.56,0.45-49.02,0.19-74.92c-0.05-4.76-0.09-9.71-0.14-14.94
		c-0.06-6.75,2.15-18.67,8.47-23.85l1-0.82h1.29c13.96,0,95.57-14.49,96.39-14.64l0.65-0.12l0.65,0.12
		c0.82,0.16,82.19,15.46,97.47,15.46h1.32l1.01,0.85c5.45,4.59,7.43,15.71,7.4,21.64c-0.14,23.9-0.13,43.08-0.13,63.38
		c0,11.05,0.01,22.52-0.01,35.42c-0.03,18.44-6.92,36.04-21.06,53.78c-20.27,25.42-45.76,40.11-72.74,55.65
		c-3.99,2.3-8.02,4.62-12.09,7.01L300.11,441.51z M204.57,209.06c-3.18,3.55-5.07,11.5-5.02,17.43c0.05,5.23,0.09,10.17,0.14,14.93
		c0.25,25.96,0.46,46.47-0.19,75.15c-0.49,21.83,6.75,41.37,22.15,59.73c18.64,22.23,41.86,35.64,66.44,49.84
		c3.92,2.27,7.96,4.6,12.03,6.99c3.47-2.02,6.9-4,10.31-5.97c26.38-15.2,51.29-29.55,70.7-53.9c13.27-16.65,19.46-32.31,19.49-49.29
		c0.02-12.89,0.01-24.36,0.01-35.41c-0.01-20.31-0.02-39.5,0.12-63.42c0.03-5-1.69-12.22-4.07-15.26
		c-18.28-0.8-88.51-13.91-96.6-15.43C292,195.89,221.72,208.29,204.57,209.06z"/>
	<g>
		<path class="st2" d="M223.34,227.96h35.14c9.69,0,19.21,3.12,19.21,13.77c0,7.68-4.08,11.77-11.53,13.69v0.16
			c7.76,1.04,12.57,7.12,12.57,12.73c0,14.09-11.37,15.53-22.97,15.53h-32.42V227.96z M243.51,249.34h5.36
			c3.76,0,7.84-1.12,7.84-5.36c0-4.16-3.52-5.44-7.36-5.44h-5.84V249.34z M243.51,272.31h5.6c3.92,0,8.16-1.44,8.16-5.76
			c0-4.8-4-5.68-8-5.68h-5.76V272.31z"/>
	</g>
	<g>
		<path class="st2" d="M338.66,357.23c0.01,5.28,1.54,9.28,6.67,9.27c5.6-0.01,6.79-3.78,6.78-9.22l-0.08-33.22l20.97-0.05
			l0.08,32.82c0.05,18.09-11.07,24.04-27.95,24.09c-15.61,0.04-27.87-6.33-27.92-22.82l-0.09-33.94l21.45-0.05L338.66,357.23z"/>
	</g>
</g>
<text transform="matrix(1 0 0 1 -498.8039 -40.2322)" class="st2" style="font-family:'FranklinGothic-Demi'; font-size:59.4295px;">BU Original</text>
<text transform="matrix(1 0 0 1 -996.3049 998.3607)" class="st2" style="font-family:'FranklinGothic-Demi'; font-size:59.4295px;">BU White</text>
<text transform="matrix(1 0 0 1 94.188 -44.958)" class="st2" style="font-family:'FranklinGothic-Demi'; font-size:59.4295px;">BU Color Match</text>
<polygon class="st2" points="-27.97,993.54 -33.84,987.68 -33.84,987.68 -70.4,951.12 -76.26,956.98 -39.7,993.54 -76.26,1030.1 
	-70.4,1035.97 -33.84,999.41 -33.84,999.41 -27.97,993.55 -27.97,993.54 "/>
</svg>
