<?xml version="1.0" encoding="utf-8"?>
<!-- Generator: Adobe Illustrator 27.5.0, SVG Export Plug-In . SVG Version: 6.00 Build 0)  -->
<svg version="1.1" id="Layer_1" xmlns="http://www.w3.org/2000/svg" xmlns:xlink="http://www.w3.org/1999/xlink" x="0px" y="0px"
	 viewBox="0 0 600 600" style="enable-background:new 0 0 600 600;" xml:space="preserve">
<style type="text/css">
	.st0{fill:none;}
	.st1{fill:#FFFFFF;}
	.st2{fill:none;stroke:#FFFFFF;stroke-width:1.769;stroke-miterlimit:10;}
</style>
<g>
	<g>
		<circle class="st0" cx="300" cy="300" r="211.08"/>
		<path class="st1" d="M33.23,285.63c-5.31-0.15-5.83,4.49-5.95,8.69l-0.1,3.54l11.27,0.31l0.1-3.74
			C38.66,290.57,37.94,285.76,33.23,285.63z"/>
		<polygon class="st1" points="141.06,509.24 150.77,516.28 155.89,499.08 155.8,499.01 		"/>
		<path class="st1" d="M191.43,518.57l-2.85-1.39l-4.44,9.09l3.01,1.47c3.12,1.52,7.31,2.72,9.17-1.08
			C198.41,522.37,194.81,520.22,191.43,518.57z"/>
		<path class="st1" d="M184.94,533.46l-3.49-1.7l-5.22,10.67l3.49,1.7c3.43,1.68,8.02,2.87,10.11-1.41
			C192.19,537.92,188.64,535.27,184.94,533.46z"/>
		<path class="st1" d="M58.62,186.02c-5.03-2.23-7.53,2.25-9.39,6.45l-1.22,2.76l11.26,5l1.22-2.76
			C62.34,193.33,63.84,188.33,58.62,186.02z"/>
		<polygon class="st1" points="35.75,240.53 52.71,251.14 55.65,238.09 35.78,240.4 		"/>
		<path class="st1" d="M521.29,150.78c4.49-3.19,1.9-7.62-0.76-11.36l-1.75-2.46l-10.04,7.14l1.75,2.46
			C513.11,150.24,516.64,154.08,521.29,150.78z"/>
		<path class="st1" d="M215.5,46.78c-1.87-5.18-6.83-3.88-11.15-2.32l-2.84,1.02l4.18,11.59l2.84-1.02
			C212.79,54.52,217.44,52.15,215.5,46.78z"/>
		<polygon class="st1" points="175.84,80.66 160.43,67.9 160.32,67.96 164.38,87.55 		"/>
		<path class="st1" d="M52.53,284.79c-5.96-0.17-7.01,4.66-7.14,9.25l-0.12,4.32l13.24,0.37l0.12-4.32
			C58.74,290.14,57.84,284.93,52.53,284.79z"/>
		<path class="st1" d="M475.2,468.27c-2.65,2.76-1.07,6.47,1.56,8.99c2.88,2.77,6.7,4.15,9.42,1.31c2.77-2.88,1.2-6.51-1.77-9.36
			C481.61,466.52,478.01,465.35,475.2,468.27z"/>
		<path class="st1" d="M525.47,408.79c-3.45-1.77-7.24-1.85-9.09,1.76c-1.74,3.4,0.83,6.5,4.08,8.16c3.56,1.82,7.61,2.04,9.4-1.47
			C531.68,413.69,529.13,410.67,525.47,408.79z"/>
		<path class="st1" d="M300,0C134.31,0,0,134.31,0,300s134.31,300,300,300s300-134.31,300-300S465.69,0,300,0z M579.78,286.61
			l-19.03,11.12l19.38,10.7l0.16,9.7l-27.92-15.94l-18.09,0.29l-0.15-9.17l18.09-0.29l27.39-17.15L579.78,286.61z M578.35,264.81
			l-7.08,1.35l-2.45-12.88l-37.87,7.2l-1.72-9.02l37.87-7.2l-2.45-12.88l7.08-1.35L578.35,264.81z M567.53,217.13l-43.48,14.24
			l-2.86-8.72l43.48-14.24L567.53,217.13z M554.17,180.58c1.7,3.55,2.8,7.09,3.24,10.58l-7.17,2.48c-0.12-3.14-0.85-6.35-2.24-9.25
			c-1.36-2.84-4.35-5.91-8.84-3.77c-7.16,3.42,4.5,20.08-9.34,26.68c-9.05,4.32-15.9-1.2-19.88-9.54c-2.15-4.5-2.52-6.79-3.46-11.35
			l7.82-2.79c-0.18,3.57,0.37,7.31,1.92,10.56c1.5,3.13,5.1,6.57,8.83,4.79c7.87-3.76-4.03-20.3,9.64-26.83
			C543.91,167.76,550.7,173.31,554.17,180.58z M519.34,125.31l5.73,8.07c5.7,8.01,12.76,17.38,2.4,24.75
			c-4.38,3.11-10.1,2.76-14.12-1.54l-0.11,0.08c1.28,2.14,0.09,4.76-1.04,6.69l-10.33,16.35l-5.92-8.33l8.46-12.77
			c2.02-3.04,2.4-4.76,0.16-7.91l-1.71-2.4l-15.49,11.01l-5.32-7.48L519.34,125.31z M507.16,111.14l-5.08,5.12l-12.66-12.56l-7.94,8
			l11.59,11.49l-5.08,5.12l-11.59-11.49l-9.05,9.12l12.75,12.65l-5.08,5.12l-19.26-19.11l32.22-32.48L507.16,111.14z M449.11,62.73
			l-10.68,36.24l0.11,0.07l29.91-23.02l7.51,5.16l-38.61,28.97l-9.29-6.39l12.96-46.61L449.11,62.73z M428.13,50.97l-20.28,41
			l-8.22-4.07l20.28-41L428.13,50.97z M367.17,27.49l10.74,3.42l6.22,37.89l0.12,0.04l10.39-32.6l8.37,2.67l-13.9,43.59l-10.68-3.41
			l-6.28-37.91l-0.12-0.04l-10.39,32.6l-8.37-2.67L367.17,27.49z M306.29,48.64l2.87-29.1l9.13,0.9l-2.59,26.29
			c-0.77,7.76,1.21,13.1,8.19,13.78c6.98,0.69,9.96-4.16,10.73-11.92l2.59-26.29l9.13,0.9l-2.87,29.1
			c-1.2,12.2-8.61,16.54-20.29,15.39C311.5,66.55,305.08,60.84,306.29,48.64z M267.75,21.3l1.27,7.1l-12.9,2.31l6.8,37.93
			l-9.03,1.62l-6.8-37.94l-12.9,2.31l-1.27-7.1L267.75,21.3z M199.75,38.45c9.25-3.34,20.18-7.62,24.49,4.34
			c1.82,5.06-0.06,10.47-5.28,13.19l0.04,0.12c2.41-0.66,4.61,1.19,6.16,2.79l12.98,14.35l-9.62,3.47L218.5,65.14
			c-2.39-2.76-3.94-3.6-7.58-2.28l-2.78,1l6.45,17.88l-8.63,3.11l-15.52-43.04L199.75,38.45z M160.26,57.3l38.97,29.95l-8.71,5.23
			l-8.77-6.96l-15.9,9.56l1.98,11.05l-8.14,4.9l-8.3-48.39L160.26,57.3z M102.48,101.37l12.6,13.52l13.43-12.51l-12.6-13.52
			l6.71-6.26l31.19,33.47l-6.71,6.26l-13.67-14.67l-13.43,12.51l13.67,14.67l-6.71,6.26l-31.19-33.47L102.48,101.37z M66.46,145.35
			l38.02,5.4l0.08-0.11l-28-19.67l5.05-7.19l37.44,26.3l-6.44,9.17l-38.06-5.35l-0.08,0.11l28,19.67l-5.05,7.19l-37.44-26.3
			L66.46,145.35z M41.72,191.64c3.99-8.99,8.45-19.84,20.07-14.69c4.91,2.18,7.53,7.28,5.88,12.93l0.12,0.05
			c1.19-2.2,4.05-2.5,6.28-2.52l19.33,0.55l-4.15,9.35l-15.29-0.76c-3.65-0.18-5.32,0.36-6.89,3.9l-1.2,2.7l17.37,7.71l-3.72,8.39
			L37.7,200.69L41.72,191.64z M27.99,233.2l48.59-7.46l-2.23,9.91l-11.1,1.53l-4.08,18.1l9.35,6.21l-2.09,9.27l-40.72-27.45
			L27.99,233.2z M20.16,290.84c0.16-5.9,2.11-14.7,12.14-14.42c5.44,0.15,9.14,3.93,9.97,9.39l0.13,0
			c0.76-6.21,5.07-10.35,10.71-10.2c11.53,0.32,12.95,10.72,12.79,16.49l-0.44,15.99l-45.74-1.27L20.16,290.84z M43.37,360.9
			c0-3.61,2.93-6.54,6.54-6.54c3.61,0,6.54,2.93,6.54,6.54c0,3.61-2.93,6.54-6.54,6.54C46.3,367.44,43.37,364.51,43.37,360.9z
			 M67.98,442.76l-5.66,3.13L50.53,424.6l35.9-19.87l11.73,21.19l-5.66,3.13l-7.74-13.99l-8.85,4.9L83,432.76l-5.66,3.13
			l-7.09-12.81l-10.08,5.58L67.98,442.76z M96.03,472.62c-7.15,5.46-14.18,1.87-19.21-4.72c-2.71-3.55-3.46-5.5-5.12-9.33l6.35-3.89
			c0.5,3.17,1.67,6.35,3.63,8.92c1.89,2.48,5.68,4.83,8.63,2.58c6.21-4.74-7.27-17.08,3.52-25.32c7.29-5.56,14.27-1.94,18.66,3.8
			c2.14,2.8,3.76,5.71,4.79,8.69l-5.84,3.49c-0.68-2.73-1.92-5.42-3.66-7.71c-1.71-2.24-4.91-4.39-8.46-1.68
			C93.67,451.79,106.96,464.27,96.03,472.62z M102.5,496.48l24.15-24.74l-8.41-8.21l4.52-4.63l22.72,22.18l-4.52,4.63l-8.41-8.21
			l-24.15,24.74L102.5,496.48z M153.56,537.9l-7.38-5.34l2.66-9.69l-13.48-9.76l-8.42,5.52l-6.91-5l37.02-23.86l7.53,5.45
			L153.56,537.9z M204.18,529.31c-2.14,4.38-6.6,6-11.37,4.65l-0.05,0.11c4.79,2.93,6.57,7.99,4.35,12.53
			c-4.54,9.3-13.56,6.59-18.21,4.32l-12.89-6.3l18.02-36.88l12.89,6.3C201.67,516.37,208.13,521.23,204.18,529.31z M229.25,569.86
			l-23.04-7.3l12.4-39.12l7.85,2.49l-10.45,32.96l15.19,4.82L229.25,569.86z M248.8,573.89l-8.07-1.63l8.1-40.23l8.07,1.62
			L248.8,573.89z M290.83,567.05c-0.76,8.96-8.13,11.76-16.39,11.06c-4.45-0.38-6.4-1.13-10.35-2.47l1.39-7.32
			c2.68,1.76,5.82,3.03,9.04,3.3c3.11,0.26,7.4-0.97,7.71-4.66c0.66-7.79-17.54-6.08-16.4-19.62c0.77-9.14,8.14-11.88,15.35-11.27
			c3.51,0.3,6.76,1.04,9.66,2.29l-1.33,6.67c-2.48-1.33-5.3-2.22-8.17-2.46c-2.81-0.24-6.55,0.69-6.92,5.14
			C273.81,554.81,291.99,553.34,290.83,567.05z M88.92,300c0-116.58,94.5-211.08,211.08-211.08S511.08,183.42,511.08,300
			S416.58,511.08,300,511.08S88.92,416.58,88.92,300z M330.52,577.02l-1.42-17.93l-16.41,1.3l1.42,17.93l-8.21,0.65l-3.24-40.91
			l8.2-0.65l1.31,16.53l16.41-1.3l-1.31-16.53l8.2-0.65l3.24,40.91L330.52,577.02z M356.6,573.05l-9.97-39.8l23.5-5.88l1.57,6.27
			l-15.51,3.88l2.46,9.81l14.2-3.55l1.57,6.27l-14.2,3.55l2.8,11.18l15.62-3.91l1.57,6.27L356.6,573.05z M406.75,557.42l-10.29,4.5
			l-16.44-37.6l10.29-4.5c11.53-5.04,23.4-5.62,29.93,9.31C426.76,544.05,418.27,552.38,406.75,557.42z M470.19,520.54l-19.44-25.03
			l-2.02,8.71l-6.53-1.7l3.56-14.97l5.76-4.47l25.17,32.41L470.19,520.54z M499.38,495.56c-2.08,2.16-4.37,3.87-7.05,5.22
			l-4.06-5.36c2.18-0.92,4.24-2.04,6.15-4.04c4.93-5.13,1.85-11.43-2.4-15.84l-0.17,0c0.74,3.4-0.12,6.07-2.53,8.58
			c-5.38,5.6-11.87,5.23-17.34-0.02c-6.41-6.15-7.63-13.36-1.2-20.06c7.9-8.23,16.48-3.5,23.44,3.18
			C502.25,474.92,508.58,485.97,499.38,495.56z M527.66,461.77c-6.62,9.29-15.8,5.85-23.65,0.26c-9.05-6.45-16.93-16.47-9.21-27.29
			c1.74-2.44,3.76-4.47,6.21-6.18l4.8,4.72c-2.03,1.23-3.9,2.63-5.5,4.89c-4.13,5.79-0.17,11.58,4.68,15.32l0.16-0.03
			c-1.17-3.22-0.76-6.03,1.26-8.85c4.5-6.32,10.98-6.9,17.16-2.5C530.79,447.25,533.05,454.21,527.66,461.77z M547.39,429.72
			c-1.37,2.67-3.07,4.97-5.24,7.02l-5.43-3.97c1.83-1.51,3.47-3.18,4.73-5.64c3.24-6.33-1.52-11.48-6.86-14.47l-0.16,0.05
			c1.68,3.04,1.63,5.85,0.05,8.94c-3.53,6.91-9.86,8.43-16.61,4.98c-7.9-4.04-11.16-10.59-6.93-18.86
			c5.19-10.16,14.77-8.1,23.36-3.7C544.19,409.12,553.44,417.89,547.39,429.72z M550.67,367.44c-3.61,0-6.54-2.93-6.54-6.54
			c0-3.61,2.93-6.54,6.54-6.54c3.61,0,6.54,2.93,6.54,6.54C557.2,364.51,554.28,367.44,550.67,367.44z"/>
		<path class="st1" d="M394.35,525.12l-4.2,1.84l11.26,25.75l4.2-1.84c6.3-2.76,10.34-10.11,6.76-18.29
			C408.79,524.38,400.65,522.36,394.35,525.12z"/>
		<path class="st1" d="M519.83,449.55c-3.26-2.32-7.23-3.13-9.51,0.08c-2.32,3.26-0.24,6.62,3.11,9.01
			c3.16,2.25,6.89,2.89,9.25-0.41C524.9,455.11,522.8,451.67,519.83,449.55z"/>
	</g>
	<line class="st2" x1="166.94" y1="308.15" x2="433.22" y2="308.15"/>
	<line class="st2" x1="300.06" y1="160.41" x2="300.06" y2="475.51"/>
	<g>
		<path class="st1" d="M269.82,382.68c1.38-0.65,2.26-2.02,2.33-3.54c0.09-2.13,0.09-5.57-0.47-9.84
			c-0.41-3.13-0.86-6.58-3.02-11.55c-2.65-6.09-5.89-9.16-5.98-9.66c-0.03-0.15,2.66,1.01,4.65,3.21c1.93,2.13,3.24,4.81,3.28,4.62
			c0.23-0.97-1.33-5.09-1.92-6.26c-2.57-5.08-7.56-9.72-14.93-12.95c-13.31-5.84-28.84-3.46-35.71,1.99
			c-0.73,0.58-0.13,1.63-0.84,2.23c-8.22,6.91-11.82,18.41-13.16,22.03c-1.35,3.64,10.6,18.61,33.93,22.31
			c3.46,0.55,7.36,0.25,10.77,0.03c0.37-0.02,0.51-8.96-1.85-18.53c-5.48-22.28-25.81-25.33-23.87-25.79
			c0.43-0.1,20.95-0.01,28.77,23.64c3.18,9.61,2.89,21.91,3.29,21.91c3.35,0,7.27-1.33,10.2-2.16
			C267.23,383.79,268.73,383.19,269.82,382.68z"/>
		<path class="st1" d="M190.99,365.61c0.26-1.33,0.78-2.58,1.64-3.66c2.57-3.18,5.57-3.3,9.31-3.3c-0.08,0.22-1.65,4.14-1.71,4.32
			c-0.68,1.79-0.25,4.01,1.29,6.57c4.59,7.69,17.8,17.25,35.94,20.06c1.52,0.24,3.32,0.35,5.49,0.35c2.59,0,5.23-0.17,7.15-0.29
			l-0.12-0.07c0.49,0.79,2.91,1.29,4.29,1.29c0.19,0,0.9-0.02,0.98-0.03c2.81-0.14,6.58-0.88,11.51-2.26
			c8.72-2.44,9.65-6.09,9.67-7.13c0.01-0.58,0.01-0.99-0.05-4.08c2.75,0.26,11.39,4.17,10.3,11.44
			c-1.11,7.34-15.84,11.81-21.47,12.85c-13.84,2.56-34.27-0.08-47.37-5.2c-5.91-2.31-11.53-5.71-16.45-9.72
			c-4.99-4.07-9.2-9.47-10.38-16.04C190.73,369.07,190.66,367.28,190.99,365.61z"/>
	</g>
	<path class="st1" d="M365.68,192.84l-0.07-22.39l-5.57-1.24l0.07,23.67l-21.04,13.88l1.51-0.29c14.76-2.89,29.94-2.88,44.7,0.02
		l1.39,0.27L365.68,192.84z"/>
	<path class="st1" d="M370.74,235.85l10.82-6.5c3.17-1.9,5.11-5.33,5.11-9.03v-8.25l-1.4-0.27c-14.75-2.85-29.92-2.8-44.65,0.12
		l-1.55,0.31l0.08,8.69c0.03,3.37,1.67,6.52,4.41,8.48c4.29,3.06,10.25,7.31,10.51,7.5l1.99,9.59c0.83,2.44,3.24,3.9,6.47,3.9
		c7.09,0,12.71,6.42,11.36,13.74c-0.85,4.6-4.54,8.3-9.14,9.16c-7.33,1.38-13.77-4.26-13.77-11.35c0-0.54-0.04-1.44,0.03-2.13
		c0.33-3.2-1.32-5.55-3.04-6.54c-1.23-0.72-2.37-1.12-3.85-1.12c-0.79,0-3.62,0.18-3.9,2.3c-0.1,0.72,1.9,0.55,2.08,2.88
		c0.08,0.99-0.62,4.14-0.77,6.16c-0.24,2.92,0.16,5.84,1.07,8.43c2.46,6.94,10.76,13.15,19.93,13.15
		c12.74,0,23.11-10.38,23.11-23.12c0-10.37-7.04-19.43-16.8-22.23l0.73-2.71C370.06,236.68,370.49,236.29,370.74,235.85z
		 M362.78,221.7c-1.8,0-3.26-1.46-3.26-3.26s1.46-3.26,3.26-3.26c1.8,0,3.26,1.46,3.26,3.26S364.58,221.7,362.78,221.7z"/>
	<path class="st1" d="M300.14,480.87l-2.34-1.39c-5.94-3.52-11.88-6.95-17.62-10.27c-32.15-18.57-62.51-36.1-87.38-65.76
		c-21.19-25.26-31.15-52.24-30.47-82.48c0.83-36.51,0.57-62.65,0.24-95.76c-0.06-6.08-0.12-12.41-0.18-19.1
		c-0.07-8.62,2.74-23.86,10.82-30.49l1.28-1.05h1.65c17.85,0,122.15-18.53,123.2-18.71l0.83-0.15l0.83,0.16
		c1.05,0.2,105.05,19.76,124.58,19.76h1.68l1.29,1.08c6.97,5.87,9.5,20.08,9.46,27.66c-0.18,30.55-0.17,55.06-0.16,81
		c0.01,14.12,0.01,28.78-0.01,45.27c-0.03,23.57-8.84,46.06-26.92,68.74c-25.9,32.49-58.48,51.26-92.98,71.13
		c-5.1,2.94-10.25,5.91-15.46,8.96L300.14,480.87z M178.03,183.76c-4.07,4.53-6.48,14.7-6.41,22.27c0.06,6.68,0.12,13,0.18,19.09
		c0.33,33.19,0.58,59.4-0.25,96.05c-0.63,27.9,8.63,52.88,28.31,76.35c23.82,28.41,53.5,45.55,84.92,63.7
		c5.01,2.9,10.17,5.88,15.37,8.94c4.43-2.59,8.82-5.12,13.18-7.63c33.71-19.42,65.56-37.77,90.37-68.89
		c16.96-21.28,24.88-41.3,24.91-63c0.02-16.48,0.02-31.14,0.01-45.25c-0.01-25.96-0.02-50.49,0.16-81.06
		c0.04-6.4-2.16-15.62-5.2-19.51c-23.36-1.02-113.13-17.78-123.46-19.72C289.77,166.94,199.95,182.78,178.03,183.76z"/>
	<g>
		<path class="st1" d="M235.17,249.98h-7.37v14.63h7.16c5.01,0,10.44-1.84,10.44-7.37C245.4,251.1,240.28,249.98,235.17,249.98z"/>
		<path class="st1" d="M244.68,228.39c0-5.32-4.5-6.96-9.41-6.96h-7.47v13.81h6.85C239.47,235.24,244.68,233.81,244.68,228.39z"/>
		<path class="st1" d="M176.14,179.2c-6.42,5.26-9.21,18.48-9.14,26.88c0.38,43.28,0.91,58.82-0.07,102.08h133.13l0.08-147.74
			C300.15,160.41,194.6,179.2,176.14,179.2z M243.46,279.34h-41.44v-71.41h44.91c12.38,0,24.55,3.99,24.55,17.6
			c0,9.82-5.22,15.04-14.73,17.49v0.2c9.92,1.33,16.06,9.11,16.06,16.27C272.82,277.5,258.29,279.34,243.46,279.34z"/>
	</g>
	<g>
		<path class="st1" d="M300.06,308.15l0.08,167.36c40.46-23.74,78.05-42.48,107.16-78.99c15.33-19.23,25.88-40.57,25.92-65.87v-22.5
			H300.06z M357.67,403.41c-19.95,0.05-35.63-8.09-35.68-29.17l-0.11-43.38l27.42-0.07l0.11,42.36c0.02,6.75,1.97,11.86,8.52,11.85
			c7.16-0.02,8.68-4.83,8.67-11.79l-0.11-42.46l26.8-0.07l0.11,41.95C393.46,395.75,379.26,403.35,357.67,403.41z"/>
	</g>
</g>
</svg>
