<?xml version="1.0" encoding="UTF-8"?>
<svg id="Layer_1" data-name="Layer 1" xmlns="http://www.w3.org/2000/svg" viewBox="0 0 100 100">
  <defs>
    <style>
      .cls-1 {
        stroke-width: 0px;
      }
    </style>
  </defs>
  <path class="cls-1" d="m50,52.26c-3.77,0-6.97-1.32-9.61-3.96-2.64-2.64-3.96-5.84-3.96-9.61s1.32-6.97,3.96-9.61,5.84-3.96,9.61-3.96,6.97,1.32,9.61,3.96,3.96,5.84,3.96,9.61-1.32,6.97-3.96,9.61c-2.64,2.64-5.84,3.96-9.61,3.96Zm-27.14,45.24v-34.95c-2.87-3.17-5.09-6.79-6.67-10.86s-2.38-8.41-2.38-13.01c0-10.1,3.51-18.66,10.52-25.67S39.9,2.5,50,2.5s18.66,3.51,25.67,10.52,10.52,15.57,10.52,25.67c0,4.6-.79,8.93-2.38,13.01s-3.81,7.69-6.67,10.86v34.95l-27.14-9.05-27.14,9.05Zm27.14-31.67c7.54,0,13.95-2.64,19.23-7.92s7.92-11.69,7.92-19.23-2.64-13.95-7.92-19.23c-5.28-5.28-11.69-7.92-19.23-7.92s-13.95,2.64-19.23,7.92c-5.28,5.28-7.92,11.69-7.92,19.23s2.64,13.95,7.92,19.23c5.28,5.28,11.69,7.92,19.23,7.92Z"/>
</svg>